SplineFontDB: 3.2
FontName: SingScript.sg_arrows
FullName: SingScript.sg "arrows" module
FamilyName: SingScript.sg
Weight: Regular
Copyright: Copyright (c) 2025, 05524F.sg (Singapore)
Version: v2
ItalicAngle: 0
UnderlinePosition: -100
UnderlineWidth: 67
Ascent: 600
Descent: 300
InvalidEm: 0
sfntRevision: 0x00010000
LayerCount: 2
Layer: 0 0 "Back" 1
Layer: 1 0 "Fore" 0
XUID: [1021 768 647112374 32286]
StyleMap: 0x0040
FSType: 0
OS2Version: 4
OS2_WeightWidthSlopeOnly: 0
OS2_UseTypoMetrics: 1
CreationTime: 1740441635
ModificationTime: 1753491190
PfmFamily: 65
TTFWeight: 400
TTFWidth: 5
LineGap: 81
VLineGap: 0
Panose: 3 0 5 3 0 0 0 0 0 0
OS2TypoAscent: 600
OS2TypoAOffset: 0
OS2TypoDescent: -300
OS2TypoDOffset: 0
OS2TypoLinegap: 81
OS2WinAscent: 590
OS2WinAOffset: 0
OS2WinDescent: 233
OS2WinDOffset: 0
HheadAscent: 590
HheadAOffset: 0
HheadDescent: -233
HheadDOffset: 0
OS2SubXSize: 585
OS2SubYSize: 630
OS2SubXOff: 0
OS2SubYOff: 126
OS2SupXSize: 585
OS2SupYSize: 630
OS2SupXOff: 0
OS2SupYOff: 432
OS2StrikeYSize: 44
OS2StrikeYPos: 232
OS2CapHeight: 467
OS2XHeight: 300
OS2Vendor: '5524'
OS2CodePages: 00000001.00000000
OS2UnicodeRanges: 80000003.10000000.00000000.00000000
MarkAttachClasses: 1
DEI: 91125
LangName: 1033 "" "" "" "" "" "Version v2"
Encoding: Custom
UnicodeInterp: none
NameList: AGL For New Fonts
DisplaySize: -48
AntiAlias: 1
FitToEm: 0
WidthSeparation: 50
WinInfo: 0 27 3
BeginPrivate: 6
BlueValues 21 [0 0 300 300 467 467]
OtherBlues 11 [-233 -233]
StdHW 4 [67]
StdVW 4 [67]
StemSnapH 33 [52 59 63 67 73 78 86 93 159 167]
StemSnapV 4 [67]
EndPrivate
Grid
0 -200 m 24
 351 -200 549 -200 900 -200 c 1048
0 -233 m 24
 351 -233 549 -233 900 -233 c 1048
250 211 m 24
 289 211 311 211 350 211 c 1048
250 100 m 24
 289 100 311 100 350 100 c 1048
250 -100 m 24
 289 -100 311 -100 350 -100 c 1048
250 -255 m 24
 289 -255 311 -255 350 -255 c 1048
100 511 m 24
 139 511 161 511 200 511 c 1048
100 400 m 24
 139 400 161 400 200 400 c 1048
100 200 m 24
 139 200 161 200 200 200 c 1048

StartChar: arrowleft
Encoding: 0 8592 0
Width: 817
Flags: W
HStem: 116 68<158 788.515>
LayerCount: 2
Fore
SplineSet
218 306 m 0
 236 306 251 290 251 272 c 0
 251 261 246 251 238 245 c 2
 158 184 l 1
 758 184 l 2
 776 184 792 168 792 150 c 0
 792 132 776 116 758 116 c 2
 158 116 l 1
 238 55 l 2
 246 49 251 39 251 28 c 0
 251 10 236 -6 218 -6 c 0
 211 -6 204 -4 197 1 c 2
 38 123 l 2
 30 129 25 139 25 150 c 0
 25 161 30 170 38 177 c 2
 197 299 l 2
 204 304 211 306 218 306 c 0
EndSplineSet
Validated: 1
EndChar

StartChar: arrowup
Encoding: 1 8593 1
Width: 361
Flags: W
HStem: -234 21G<172 190>
VStem: 147 68<-230.515 401>
LayerCount: 2
Fore
SplineSet
215 -200 m 2
 215 -218 199 -234 181 -234 c 0
 163 -234 147 -218 147 -200 c 2
 147 402 l 1
 131 381 110 354 85 321 c 0
 79 313 69 308 58 308 c 0
 40 308 25 323 25 341 c 0
 25 348 27 355 32 362 c 2
 154 521 l 2
 161 529 170 534 181 534 c 0
 193 534 203 528 210 517 c 2
 329 362 l 2
 334 355 336 348 336 341 c 0
 336 323 321 308 303 308 c 0
 292 308 282 313 276 321 c 2
 215 401 l 1
 215 -200 l 2
EndSplineSet
Validated: 1
EndChar

StartChar: arrowright
Encoding: 2 8594 2
Width: 817
Flags: W
HStem: 116 68<28.2926 659>
LayerCount: 2
Fore
SplineSet
58 116 m 2
 40 116 25 132 25 150 c 0
 25 168 40 184 58 184 c 2
 659 184 l 1
 638 200 611 220 579 245 c 0
 571 251 566 261 566 272 c 0
 566 290 581 306 599 306 c 0
 606 306 613 304 620 299 c 2
 779 177 l 2
 787 170 792 161 792 150 c 0
 792 139 787 129 779 123 c 2
 620 1 l 2
 613 -4 606 -6 599 -6 c 0
 581 -6 566 10 566 28 c 0
 566 39 571 49 579 55 c 2
 659 116 l 1
 58 116 l 2
EndSplineSet
Validated: 1
EndChar

StartChar: arrowdown
Encoding: 3 8595 3
Width: 361
Flags: W
HStem: -234 21G<175.5 187>
VStem: 147 68<-101 530.515>
LayerCount: 2
Fore
SplineSet
25 -41 m 0
 25 -23 40 -8 58 -8 c 0
 69 -8 79 -13 85 -21 c 0
 110 -54 131 -81 147 -102 c 1
 147 500 l 2
 147 518 163 534 181 534 c 0
 199 534 215 518 215 500 c 2
 215 -101 l 1
 276 -21 l 2
 282 -13 292 -8 303 -8 c 0
 321 -8 336 -23 336 -41 c 0
 336 -48 334 -55 329 -62 c 2
 210 -217 l 2
 203 -228 193 -234 181 -234 c 0
 170 -234 161 -229 154 -221 c 2
 32 -62 l 2
 27 -55 25 -48 25 -41 c 0
EndSplineSet
Validated: 1
EndChar

StartChar: arrowboth
Encoding: 4 8596 4
Width: 817
Flags: W
HStem: 116 68<158 659>
LayerCount: 2
Fore
SplineSet
218 306 m 0
 236 306 251 290 251 272 c 0
 251 261 246 251 238 245 c 2
 158 184 l 1
 659 184 l 1
 638 200 611 220 579 245 c 0
 571 251 566 261 566 272 c 0
 566 290 581 306 599 306 c 0
 606 306 613 304 620 299 c 2
 779 177 l 2
 787 170 792 161 792 150 c 0
 792 139 787 129 779 123 c 2
 620 1 l 2
 613 -4 606 -6 599 -6 c 0
 581 -6 566 10 566 28 c 0
 566 39 571 49 579 55 c 2
 659 116 l 1
 158 116 l 1
 238 55 l 2
 246 49 251 39 251 28 c 0
 251 10 236 -6 218 -6 c 0
 211 -6 204 -4 197 1 c 2
 38 123 l 2
 30 129 25 139 25 150 c 0
 25 161 30 170 38 177 c 2
 197 299 l 2
 204 304 211 306 218 306 c 0
EndSplineSet
Validated: 1
EndChar

StartChar: arrowupdn
Encoding: 5 8597 5
Width: 361
Flags: W
HStem: -234 21G<175.5 187>
VStem: 147 68<-101 401>
LayerCount: 2
Fore
SplineSet
25 341 m 0
 25 348 27 355 32 362 c 2
 154 521 l 2
 161 529 170 534 181 534 c 0
 193 534 203 528 210 517 c 2
 329 362 l 2
 334 355 336 348 336 341 c 0
 336 323 321 308 303 308 c 0
 292 308 282 313 276 321 c 2
 215 401 l 1
 215 -101 l 1
 276 -21 l 2
 282 -13 292 -8 303 -8 c 0
 321 -8 336 -23 336 -41 c 0
 336 -48 334 -55 329 -62 c 2
 210 -217 l 2
 203 -228 193 -234 181 -234 c 0
 170 -234 161 -229 154 -221 c 2
 32 -62 l 2
 27 -55 25 -48 25 -41 c 0
 25 -23 40 -8 58 -8 c 0
 69 -8 79 -13 85 -21 c 0
 110 -54 131 -81 147 -102 c 1
 147 402 l 1
 131 381 110 354 85 321 c 0
 79 313 69 308 58 308 c 0
 40 308 25 323 25 341 c 0
EndSplineSet
Validated: 1
EndChar

StartChar: uni2196
Encoding: 6 8598 6
Width: 612
Flags: W
VStem: 51 67<168.176 242.219>
LayerCount: 2
Fore
SplineSet
291 371 m 0
 291 352 277 338 257 338 c 2
 253 338 l 1
 212 343 178 348 152 351 c 1
 577 -74 l 2
 584 -81 587 -89 587 -97 c 0
 587 -115 571 -131 553 -131 c 0
 545 -131 537 -128 530 -121 c 2
 105 305 l 1
 118 203 l 2
 118 202 118 201 118 200 c 0
 118 181 103 165 85 165 c 0
 68 165 53 178 51 194 c 2
 25 393 l 2
 25 395 25 396 25 398 c 0
 25 414 41 431 58 431 c 2
 63 431 l 1
 262 404 l 2
 279 402 291 388 291 371 c 0
EndSplineSet
Validated: 1
EndChar

StartChar: uni2197
Encoding: 7 8599 7
Width: 611
Flags: W
HStem: 338 66<323.795 407.946>
LayerCount: 2
Fore
SplineSet
527 165 m 0
 508 165 494 179 494 199 c 0
 494 204 498 234 507 304 c 1
 82 -121 l 2
 75 -128 67 -131 59 -131 c 0
 41 -131 25 -115 25 -97 c 0
 25 -89 28 -81 35 -74 c 2
 460 351 l 1
 359 338 l 1
 354 338 l 2
 335 338 321 352 321 371 c 0
 321 388 333 402 350 404 c 0
 467 419 549 430 549 431 c 1
 553 431 l 2
 572 431 587 415 587 397 c 0
 587 394 586 391 585 388 c 2
 560 194 l 2
 558 177 544 165 527 165 c 0
EndSplineSet
Validated: 1
EndChar

StartChar: uni2198
Encoding: 8 8600 8
Width: 611
Flags: W
VStem: 494 66<57.112 132.308>
LayerCount: 2
Fore
SplineSet
321 -71 m 0
 321 -52 335 -38 355 -38 c 2
 359 -38 l 1
 460 -51 l 1
 35 374 l 2
 28 381 25 389 25 397 c 0
 25 415 41 431 59 431 c 0
 67 431 75 428 82 421 c 2
 507 -4 l 1
 494 97 l 2
 494 98 494 100 494 101 c 0
 494 120 507 135 527 135 c 0
 544 135 558 123 560 106 c 2
 585 -88 l 2
 586 -91 587 -94 587 -97 c 0
 587 -115 572 -131 553 -131 c 2
 549 -131 l 1
 350 -104 l 2
 333 -102 321 -88 321 -71 c 0
EndSplineSet
Validated: 1
EndChar

StartChar: uni2199
Encoding: 9 8601 9
Width: 612
Flags: W
HStem: -104 66<204.054 288.187>
LayerCount: 2
Fore
SplineSet
257 -38 m 2
 277 -38 291 -52 291 -71 c 0
 291 -88 279 -102 262 -104 c 0
 145 -119 63 -130 63 -131 c 1
 59 -131 l 2
 40 -131 25 -115 25 -96 c 0
 25 -95 25 -94 25 -93 c 2
 51 106 l 2
 53 122 68 135 85 135 c 0
 103 135 118 120 118 101 c 0
 118 74 114 61 111 48 c 0
 108 35 104 22 104 -5 c 1
 530 421 l 2
 537 428 545 431 553 431 c 0
 571 431 587 415 587 397 c 0
 587 389 584 381 577 374 c 2
 152 -51 l 1
 253 -38 l 1
 257 -38 l 2
EndSplineSet
Validated: 1
EndChar

StartChar: uni219A
Encoding: 10 8602 10
Width: 817
Flags: W
HStem: 116 68<158 354 463 788.515>
VStem: 300 63<-30.4126 21.625> 454 63<278.375 330.876>
LayerCount: 2
Fore
SplineSet
517 300 m 0
 517 292 517 292 463 184 c 1
 758 184 l 2
 776 184 792 168 792 150 c 0
 792 132 776 116 758 116 c 2
 429 116 l 1
 390 38 364 -14 363 -15 c 0
 358 -27 346 -34 334 -34 c 0
 316 -34 300 -18 300 0 c 0
 300 8 300 8 354 116 c 1
 158 116 l 1
 238 55 l 2
 246 49 251 39 251 28 c 0
 251 10 236 -6 218 -6 c 0
 211 -6 204 -4 197 1 c 2
 38 123 l 2
 30 129 25 139 25 150 c 0
 25 161 30 170 38 177 c 2
 197 299 l 2
 204 304 211 306 218 306 c 0
 236 306 251 290 251 272 c 0
 251 261 246 251 238 245 c 2
 158 184 l 1
 388 184 l 1
 427 262 453 314 454 315 c 0
 460 327 472 334 484 334 c 0
 502 334 517 318 517 300 c 0
EndSplineSet
Validated: 1
EndChar

StartChar: uni219B
Encoding: 11 8603 11
Width: 817
Flags: W
HStem: 116 68<28.2926 354 463 659>
VStem: 300 63<-30.4126 21.625> 454 63<278.375 330.876>
LayerCount: 2
Fore
SplineSet
300 0 m 0
 300 8 300 8 354 116 c 1
 58 116 l 2
 40 116 25 132 25 150 c 0
 25 168 40 184 58 184 c 2
 388 184 l 1
 427 262 453 314 454 315 c 0
 460 327 472 334 484 334 c 0
 502 334 517 318 517 300 c 0
 517 292 517 292 463 184 c 1
 659 184 l 1
 638 200 611 220 579 245 c 0
 571 251 566 261 566 272 c 0
 566 290 581 306 599 306 c 0
 606 306 613 304 620 299 c 2
 779 177 l 2
 787 170 792 161 792 150 c 0
 792 139 787 129 779 123 c 2
 620 1 l 2
 613 -4 606 -6 599 -6 c 0
 581 -6 566 10 566 28 c 0
 566 39 571 49 579 55 c 2
 659 116 l 1
 429 116 l 1
 390 38 364 -14 363 -15 c 0
 358 -27 346 -34 334 -34 c 0
 316 -34 300 -18 300 0 c 0
EndSplineSet
Validated: 1
EndChar

StartChar: uni21A2
Encoding: 12 8610 12
Width: 817
Flags: W
HStem: 116 68<158 588>
LayerCount: 2
Fore
SplineSet
218 306 m 0
 236 306 251 290 251 272 c 0
 251 261 246 251 238 245 c 2
 158 184 l 1
 588 184 l 1
 738 299 l 2
 745 304 752 306 759 306 c 0
 777 306 792 290 792 272 c 0
 792 261 787 251 779 245 c 2
 655 150 l 1
 779 55 l 2
 787 49 792 39 792 28 c 0
 792 10 777 -6 759 -6 c 0
 752 -6 745 -4 738 1 c 2
 588 116 l 1
 158 116 l 1
 238 55 l 2
 246 49 251 39 251 28 c 0
 251 10 236 -6 218 -6 c 0
 211 -6 204 -4 197 1 c 2
 38 123 l 2
 30 129 25 139 25 150 c 0
 25 161 30 170 38 177 c 2
 197 299 l 2
 204 304 211 306 218 306 c 0
EndSplineSet
Validated: 1
EndChar

StartChar: uni21A3
Encoding: 13 8611 13
Width: 817
Flags: W
HStem: 116 68<229 659>
LayerCount: 2
Fore
SplineSet
599 306 m 0
 606 306 613 304 620 299 c 2
 779 177 l 2
 787 170 792 161 792 150 c 0
 792 139 787 129 779 123 c 2
 620 1 l 2
 613 -4 606 -6 599 -6 c 0
 581 -6 566 10 566 28 c 0
 566 39 571 49 579 55 c 2
 659 116 l 1
 229 116 l 1
 79 1 l 2
 72 -4 65 -6 58 -6 c 0
 40 -6 25 10 25 28 c 0
 25 39 30 49 38 55 c 2
 163 150 l 1
 162 150 111 189 38 245 c 0
 30 251 25 261 25 272 c 0
 25 290 40 306 58 306 c 0
 65 306 72 304 79 299 c 2
 229 184 l 1
 659 184 l 1
 638 200 611 220 579 245 c 0
 571 251 566 261 566 272 c 0
 566 290 581 306 599 306 c 0
EndSplineSet
Validated: 1
EndChar

StartChar: uni21A4
Encoding: 14 8612 14
Width: 817
Flags: W
HStem: 0 21G<749 767> 116 68<158 725> 280 20G<749 767>
VStem: 725 67<3.48541 116 184 296.515>
LayerCount: 2
Fore
SplineSet
792 34 m 2
 792 16 776 0 758 0 c 0
 740 0 725 16 725 34 c 2
 725 116 l 1
 158 116 l 1
 238 55 l 2
 246 49 251 39 251 28 c 0
 251 10 236 -6 218 -6 c 0
 211 -6 204 -4 197 1 c 2
 38 123 l 2
 30 129 25 139 25 150 c 0
 25 161 30 170 38 177 c 2
 197 299 l 2
 204 304 211 306 218 306 c 0
 236 306 251 290 251 272 c 0
 251 261 246 251 238 245 c 2
 158 184 l 1
 725 184 l 1
 725 266 l 2
 725 284 740 300 758 300 c 0
 776 300 792 284 792 266 c 2
 792 34 l 2
EndSplineSet
Validated: 1
EndChar

StartChar: uni21A5
Encoding: 15 8613 15
Width: 361
Flags: W
HStem: -234 68<34.2926 147 215 327.707>
VStem: 147 68<-166 401>
LayerCount: 2
Fore
SplineSet
64 -234 m 2
 46 -234 31 -218 31 -200 c 0
 31 -182 46 -166 64 -166 c 2
 147 -166 l 1
 147 402 l 1
 131 381 110 354 85 321 c 0
 79 313 69 308 58 308 c 0
 40 308 25 323 25 341 c 0
 25 348 27 355 32 362 c 2
 154 521 l 2
 161 529 170 534 181 534 c 0
 193 534 203 528 210 517 c 2
 329 362 l 2
 334 355 336 348 336 341 c 0
 336 323 321 308 303 308 c 0
 292 308 282 313 276 321 c 2
 215 401 l 1
 215 -166 l 1
 298 -166 l 2
 316 -166 331 -182 331 -200 c 0
 331 -218 316 -234 298 -234 c 2
 64 -234 l 2
EndSplineSet
Validated: 1
EndChar

StartChar: uni21A6
Encoding: 16 8614 16
Width: 817
Flags: W
HStem: 0 21G<49 67> 116 68<92 659> 280 20G<49 67>
VStem: 25 67<3.48541 116 184 296.515>
LayerCount: 2
Fore
SplineSet
92 34 m 2
 92 16 76 0 58 0 c 0
 40 0 25 16 25 34 c 2
 25 266 l 2
 25 284 40 300 58 300 c 0
 76 300 92 284 92 266 c 2
 92 184 l 1
 659 184 l 1
 638 200 611 220 579 245 c 0
 571 251 566 261 566 272 c 0
 566 290 581 306 599 306 c 0
 606 306 613 304 620 299 c 2
 779 177 l 2
 787 170 792 161 792 150 c 0
 792 139 787 129 779 123 c 2
 620 1 l 2
 613 -4 606 -6 599 -6 c 0
 581 -6 566 10 566 28 c 0
 566 39 571 49 579 55 c 2
 659 116 l 1
 92 116 l 1
 92 34 l 2
EndSplineSet
Validated: 1
EndChar

StartChar: uni21A7
Encoding: 17 8615 17
Width: 361
Flags: W
HStem: -234 21G<175.5 187> 466 68<34.2926 147 215 327.707>
VStem: 147 68<-101 466>
LayerCount: 2
Fore
SplineSet
64 466 m 2
 46 466 31 482 31 500 c 0
 31 518 46 534 64 534 c 2
 298 534 l 2
 316 534 331 518 331 500 c 0
 331 482 316 466 298 466 c 2
 215 466 l 1
 215 -101 l 1
 276 -21 l 2
 282 -13 292 -8 303 -8 c 0
 321 -8 336 -23 336 -41 c 0
 336 -48 334 -55 329 -62 c 2
 210 -217 l 2
 203 -228 193 -234 181 -234 c 0
 170 -234 161 -229 154 -221 c 2
 32 -62 l 2
 27 -55 25 -48 25 -41 c 0
 25 -23 40 -8 58 -8 c 0
 69 -8 79 -13 85 -21 c 0
 110 -54 131 -81 147 -102 c 1
 147 466 l 1
 64 466 l 2
EndSplineSet
Validated: 1
EndChar

StartChar: arrowupdnbse
Encoding: 18 8616 18
Width: 361
Flags: W
HStem: -234 68<34.2926 327.707>
VStem: 147 68<17 401>
LayerCount: 2
Fore
SplineSet
25 341 m 0
 25 348 27 355 32 362 c 2
 154 521 l 2
 161 529 170 534 181 534 c 0
 193 534 203 528 210 517 c 2
 329 362 l 2
 334 355 336 348 336 341 c 0
 336 323 321 308 303 308 c 0
 292 308 282 313 276 321 c 2
 215 401 l 1
 215 17 l 1
 276 97 l 2
 282 105 292 110 303 110 c 0
 321 110 336 95 336 77 c 0
 336 70 334 63 329 56 c 2
 210 -99 l 2
 203 -110 193 -116 181 -116 c 0
 170 -116 161 -111 154 -103 c 2
 32 56 l 2
 27 63 25 70 25 77 c 0
 25 95 40 110 58 110 c 0
 69 110 79 105 85 97 c 0
 110 64 131 37 147 16 c 1
 147 402 l 1
 131 381 110 354 85 321 c 0
 79 313 69 308 58 308 c 0
 40 308 25 323 25 341 c 0
64 -234 m 2
 46 -234 31 -218 31 -200 c 0
 31 -182 46 -166 64 -166 c 2
 298 -166 l 2
 316 -166 331 -182 331 -200 c 0
 331 -218 316 -234 298 -234 c 2
 64 -234 l 2
EndSplineSet
Validated: 1
EndChar

StartChar: uni21A9
Encoding: 19 8617 19
Width: 550
Flags: W
HStem: -100 67<158 355.116> 333 67<28.2926 355.551>
VStem: 458 67<69.857 232.132>
LayerCount: 2
Fore
SplineSet
276 -33 m 2
 377 -33 458 48 458 150 c 0
 458 252 378 333 276 333 c 2
 58 333 l 2
 40 333 25 348 25 366 c 0
 25 384 40 400 58 400 c 2
 276 400 l 2
 415 400 525 289 525 150 c 0
 525 11 414 -100 276 -100 c 2
 158 -100 l 1
 238 -161 l 2
 246 -167 251 -177 251 -188 c 0
 251 -206 236 -222 218 -222 c 0
 211 -222 204 -220 197 -215 c 2
 38 -93 l 2
 30 -87 25 -77 25 -66 c 0
 25 -55 30 -46 38 -39 c 2
 197 83 l 2
 204 88 211 90 218 90 c 0
 236 90 251 74 251 56 c 0
 251 45 246 35 238 29 c 2
 157 -33 l 1
 276 -33 l 2
EndSplineSet
Validated: 1
EndChar

StartChar: uni21AA
Encoding: 20 8618 20
Width: 550
Flags: W
HStem: -100 67<194.449 392> 333 67<194.884 521.707>
VStem: 25 67<67.8685 230.143>
LayerCount: 2
Fore
SplineSet
274 333 m 2
 173 333 92 252 92 150 c 0
 92 48 172 -33 274 -33 c 2
 393 -33 l 1
 372 -17 345 4 312 29 c 0
 304 35 299 45 299 56 c 0
 299 74 314 90 332 90 c 0
 339 90 346 88 353 83 c 2
 512 -39 l 2
 520 -46 525 -55 525 -66 c 0
 525 -77 520 -87 512 -93 c 2
 353 -215 l 2
 346 -220 339 -222 332 -222 c 0
 314 -222 299 -206 299 -188 c 0
 299 -177 304 -167 312 -161 c 2
 392 -100 l 1
 274 -100 l 2
 135 -100 25 11 25 150 c 0
 25 289 136 400 274 400 c 2
 492 400 l 2
 510 400 525 384 525 366 c 0
 525 348 510 333 492 333 c 2
 274 333 l 2
EndSplineSet
Validated: 1
EndChar

StartChar: uni21AE
Encoding: 21 8622 21
Width: 817
Flags: W
HStem: 116 68<158 354 463 659>
VStem: 300 63<-30.4126 21.625> 454 63<278.375 330.876>
LayerCount: 2
Fore
SplineSet
300 0 m 0
 300 8 300 8 354 116 c 1
 158 116 l 1
 238 55 l 2
 246 49 251 39 251 28 c 0
 251 10 236 -6 218 -6 c 0
 211 -6 204 -4 197 1 c 2
 38 123 l 2
 30 129 25 139 25 150 c 0
 25 161 30 170 38 177 c 2
 197 299 l 2
 204 304 211 306 218 306 c 0
 236 306 251 290 251 272 c 0
 251 261 246 251 238 245 c 2
 158 184 l 1
 388 184 l 1
 427 262 453 314 454 315 c 0
 460 327 472 334 484 334 c 0
 502 334 517 318 517 300 c 0
 517 292 517 292 463 184 c 1
 659 184 l 1
 638 200 611 220 579 245 c 0
 571 251 566 261 566 272 c 0
 566 290 581 306 599 306 c 0
 606 306 613 304 620 299 c 2
 779 177 l 2
 787 170 792 161 792 150 c 0
 792 139 787 129 779 123 c 2
 620 1 l 2
 613 -4 606 -6 599 -6 c 0
 581 -6 566 10 566 28 c 0
 566 39 571 49 579 55 c 2
 659 116 l 1
 429 116 l 1
 390 38 364 -14 363 -15 c 0
 358 -27 346 -34 334 -34 c 0
 316 -34 300 -18 300 0 c 0
EndSplineSet
Validated: 1
EndChar

StartChar: uni21B0
Encoding: 22 8624 22
Width: 551
Flags: W
HStem: 333 67<158 459>
VStem: 459 67<-96.5146 333>
LayerCount: 2
Fore
SplineSet
492 400 m 2
 511 400 526 385 526 366 c 2
 526 -66 l 2
 526 -84 510 -100 492 -100 c 0
 474 -100 459 -84 459 -66 c 2
 459 333 l 1
 157 333 l 1
 238 271 l 2
 246 265 251 255 251 244 c 0
 251 226 236 210 218 210 c 0
 211 210 204 212 197 217 c 2
 38 339 l 2
 30 345 25 355 25 366 c 0
 25 377 30 386 38 393 c 2
 197 515 l 2
 204 520 211 522 218 522 c 0
 236 522 251 506 251 488 c 0
 251 477 246 467 238 461 c 2
 158 400 l 1
 492 400 l 2
EndSplineSet
Validated: 1
EndChar

StartChar: uni21B1
Encoding: 23 8625 23
Width: 550
Flags: W
HStem: 334 66<92 393>
VStem: 25 67<-96.7074 334>
LayerCount: 2
Fore
SplineSet
25 367 m 2
 25 385 40 400 59 400 c 2
 393 400 l 1
 372 416 345 437 312 462 c 0
 304 468 299 478 299 489 c 0
 299 507 314 523 332 523 c 0
 339 523 346 521 353 516 c 2
 512 394 l 2
 520 387 525 378 525 367 c 0
 525 356 520 346 512 340 c 2
 353 218 l 2
 346 213 339 211 332 211 c 0
 314 211 299 227 299 245 c 0
 299 256 304 266 312 272 c 2
 394 334 l 1
 92 334 l 1
 92 -67 l 2
 92 -85 76 -100 58 -100 c 0
 40 -100 25 -85 25 -67 c 2
 25 367 l 2
EndSplineSet
Validated: 1
EndChar

StartChar: uni21B2
Encoding: 24 8626 24
Width: 550
Flags: W
HStem: -100 66<157 458>
VStem: 458 67<-34 396.707>
LayerCount: 2
Fore
SplineSet
525 -67 m 2
 525 -85 510 -100 491 -100 c 2
 157 -100 l 1
 238 -162 l 2
 246 -168 251 -178 251 -189 c 0
 251 -207 236 -223 218 -223 c 0
 211 -223 204 -221 197 -216 c 2
 38 -94 l 2
 30 -88 25 -78 25 -67 c 0
 25 -56 30 -47 38 -40 c 2
 197 82 l 2
 204 87 211 89 218 89 c 0
 236 89 251 73 251 55 c 0
 251 44 246 34 238 28 c 2
 157 -34 l 1
 458 -34 l 1
 458 367 l 2
 458 385 474 400 492 400 c 0
 510 400 525 385 525 367 c 2
 525 -67 l 2
EndSplineSet
Validated: 1
EndChar

StartChar: uni21B3
Encoding: 25 8627 25
Width: 551
Flags: W
HStem: -100 67<92 393>
VStem: 25 67<-33 396.515>
LayerCount: 2
Fore
SplineSet
58 -100 m 2
 40 -100 25 -85 25 -66 c 2
 25 366 l 2
 25 384 40 400 58 400 c 0
 76 400 92 384 92 366 c 2
 92 -33 l 1
 394 -33 l 1
 373 -17 346 4 313 29 c 0
 305 35 300 45 300 56 c 0
 300 74 315 90 333 90 c 0
 340 90 347 88 354 83 c 2
 513 -39 l 2
 521 -46 526 -55 526 -66 c 0
 526 -77 521 -87 513 -93 c 2
 354 -215 l 2
 347 -220 340 -222 333 -222 c 0
 315 -222 300 -206 300 -188 c 0
 300 -177 305 -167 313 -161 c 2
 393 -100 l 1
 58 -100 l 2
EndSplineSet
Validated: 1
EndChar

StartChar: uni21B4
Encoding: 26 8628 26
Width: 672
Flags: W
HStem: 333 67<28.2926 459>
VStem: 459 67<33 333>
LayerCount: 2
Fore
SplineSet
492 400 m 2
 511 400 526 385 526 366 c 2
 526 33 l 1
 587 113 l 2
 593 121 603 126 614 126 c 0
 632 126 647 111 647 93 c 0
 647 86 645 79 640 72 c 2
 521 -83 l 2
 514 -94 504 -100 492 -100 c 0
 481 -100 472 -95 465 -87 c 2
 343 72 l 2
 338 79 336 86 336 93 c 0
 336 111 351 126 369 126 c 0
 380 126 390 121 396 113 c 0
 422 79 443 52 459 31 c 1
 459 333 l 1
 58 333 l 2
 40 333 25 348 25 366 c 0
 25 384 40 400 58 400 c 2
 492 400 l 2
EndSplineSet
Validated: 1
EndChar

StartChar: carriagereturn
Encoding: 27 8629 27
Width: 550
Flags: W
HStem: -100 66<157 458>
VStem: 458 67<-34 396.707>
LayerCount: 2
Fore
SplineSet
525 -67 m 2
 525 -85 510 -100 491 -100 c 2
 157 -100 l 1
 238 -162 l 2
 246 -168 251 -178 251 -189 c 0
 251 -207 236 -223 218 -223 c 0
 211 -223 204 -221 197 -216 c 2
 38 -94 l 2
 30 -88 25 -78 25 -67 c 0
 25 -56 30 -47 38 -40 c 2
 197 82 l 2
 204 87 211 89 218 89 c 0
 236 89 251 73 251 55 c 0
 251 44 246 34 238 28 c 2
 157 -34 l 1
 458 -34 l 1
 458 367 l 2
 458 385 474 400 492 400 c 0
 510 400 525 385 525 367 c 2
 525 -67 l 2
EndSplineSet
Validated: 1
EndChar

StartChar: uni21B6
Encoding: 28 8630 28
Width: 602
Flags: W
HStem: 224 68<246.857 409.778>
VStem: 26 65<202.617 264.962> 510 67<11.4854 122.542>
LayerCount: 2
Fore
SplineSet
26 226 m 1
 26 228 26 230 26 232 c 0
 26 255 44 269 62 269 c 0
 75 269 87 262 91 244 c 0
 99 215 105 190 111 169 c 1
 156 246 238 292 328 292 c 0
 466 292 577 181 577 42 c 0
 577 24 562 8 544 8 c 0
 526 8 510 24 510 42 c 0
 510 144 430 224 328 224 c 0
 251 224 183 178 156 107 c 1
 267 171 l 2
 273 175 279 176 285 176 c 0
 303 176 317 160 317 143 c 0
 317 132 312 121 300 113 c 0
 201 55 119 7 112 7 c 0
 98 7 82 17 78 33 c 2
 26 226 l 1
EndSplineSet
Validated: 1
EndChar

StartChar: uni21B7
Encoding: 29 8631 29
Width: 602
Flags: W
HStem: 224 68<195.489 356.286>
VStem: 25 67<11.4854 121.116>
LayerCount: 2
Fore
SplineSet
92 42 m 0
 92 24 76 8 58 8 c 0
 40 8 25 24 25 42 c 0
 25 181 137 292 276 292 c 0
 365 292 446 246 491 169 c 1
 511 244 l 2
 514 260 528 268 543 268 c 0
 556 268 569 262 575 248 c 0
 577 243 578 237 576 226 c 0
 546 113 524 33 524 33 c 0
 521 18 506 8 491 8 c 0
 486 8 480 9 475 12 c 2
 302 113 l 2
 290 121 285 132 285 143 c 0
 285 160 299 176 317 176 c 0
 323 176 329 175 335 171 c 0
 385 142 422 120 446 107 c 1
 420 178 352 224 276 224 c 0
 173 224 92 143 92 42 c 0
EndSplineSet
Validated: 1
EndChar

StartChar: uni21BA
Encoding: 30 8634 30
Width: 652
Flags: W
HStem: -100 66<195.489 355.582>
VStem: 25 67<69.7362 200.416> 325 64<87.7306 151.918> 458 67<69.7362 194.621>
LayerCount: 2
Fore
SplineSet
25 150 m 0
 25 229 85 337 129 337 c 0
 147 337 162 321 162 303 c 0
 162 291 156 281 145 274 c 0
 145 257 131 235 118 212 c 0
 105 189 92 167 92 150 c 0
 92 47 173 -34 276 -34 c 0
 377 -34 458 47 458 150 c 0
 458 181 453 208 442 232 c 1
 432 208 414 165 389 106 c 0
 382 91 371 84 359 84 c 0
 342 84 325 99 325 120 c 0
 325 124 326 128 327 132 c 1
 404 317 l 2
 409 330 421 337 434 337 c 0
 441 337 449 335 455 330 c 2
 614 208 l 1
 622 200 626 190 626 181 c 0
 626 163 612 147 595 147 c 0
 588 147 581 150 574 155 c 2
 522 195 l 1
 524 181 525 166 525 150 c 0
 525 12 414 -100 276 -100 c 0
 137 -100 25 12 25 150 c 0
EndSplineSet
Validated: 1
EndChar

StartChar: uni21BB
Encoding: 31 8635 31
Width: 638
Flags: W
HStem: -100 66<283.489 443.582>
VStem: 113 67<69.7362 184.193> 546 67<69.7362 213.057>
LayerCount: 2
Fore
SplineSet
546 150 m 0
 546 184 532 205 518 226 c 0
 504 247 489 269 489 303 c 0
 489 321 504 336 522 336 c 0
 535 336 546 329 555 316 c 0
 597 264 613 217 613 150 c 0
 613 12 502 -100 364 -100 c 0
 225 -100 113 12 113 150 c 0
 113 162 114 173 116 185 c 1
 78 156 69 149 60 149 c 0
 57 149 53 150 49 151 c 0
 33 156 25 168 25 181 c 0
 25 190 29 200 38 209 c 1
 197 331 l 2
 203 336 211 338 218 338 c 0
 231 338 243 331 248 318 c 2
 325 133 l 1
 326 129 327 125 327 121 c 0
 327 100 310 85 293 85 c 0
 281 85 270 92 263 107 c 2
 208 239 l 1
 190 209 180 178 180 150 c 0
 180 47 261 -34 364 -34 c 0
 465 -34 546 47 546 150 c 0
EndSplineSet
Validated: 1
EndChar

StartChar: uni21BC
Encoding: 32 8636 32
Width: 817
Flags: W
HStem: 116 68<158 788.515>
LayerCount: 2
Fore
SplineSet
217 305 m 0
 236 305 251 290 251 272 c 0
 251 261 246 252 238 245 c 2
 158 184 l 1
 758 184 l 2
 776 184 792 168 792 150 c 0
 792 132 776 116 758 116 c 2
 58 116 l 2
 40 116 25 132 25 150 c 0
 25 161 30 170 38 177 c 2
 197 298 l 2
 203 303 209 305 217 305 c 0
EndSplineSet
Validated: 1
EndChar

StartChar: uni21BD
Encoding: 33 8637 33
Width: 817
Flags: W
HStem: 116 68<158 788.515>
LayerCount: 2
Fore
SplineSet
25 150 m 0
 25 168 40 184 58 184 c 2
 758 184 l 2
 776 184 792 168 792 150 c 0
 792 132 776 116 758 116 c 2
 158 116 l 1
 238 55 l 2
 246 48 251 39 251 28 c 0
 251 10 236 -5 217 -5 c 0
 209 -5 203 -3 197 2 c 2
 38 123 l 2
 30 130 25 139 25 150 c 0
EndSplineSet
Validated: 1
EndChar

StartChar: uni21BE
Encoding: 34 8638 34
Width: 240
Flags: W
HStem: -234 21G<50 68>
VStem: 25 68<-230.515 402>
LayerCount: 2
Fore
SplineSet
215 342 m 0
 215 323 200 308 181 308 c 0
 170 308 162 312 155 321 c 2
 93 402 l 1
 93 -200 l 2
 93 -218 77 -234 59 -234 c 0
 41 -234 25 -218 25 -200 c 2
 25 500 l 2
 25 518 41 534 59 534 c 1
 70 534 79 529 86 521 c 2
 208 362 l 2
 213 356 215 350 215 342 c 0
EndSplineSet
Validated: 1
EndChar

StartChar: uni21BF
Encoding: 35 8639 35
Width: 239
Flags: W
HStem: -234 21G<171 189>
VStem: 146 68<-230.515 400>
LayerCount: 2
Fore
SplineSet
180 534 m 0
 199 534 214 519 214 500 c 2
 214 -200 l 2
 214 -218 198 -234 180 -234 c 0
 162 -234 146 -218 146 -200 c 2
 146 400 l 1
 85 321 l 2
 78 313 69 308 58 308 c 0
 40 308 25 323 25 342 c 0
 25 350 27 356 32 362 c 2
 151 517 l 2
 158 528 168 534 180 534 c 0
EndSplineSet
Validated: 1
EndChar

StartChar: uni21C0
Encoding: 36 8640 36
Width: 817
Flags: W
HStem: 116 68<28.2926 659>
LayerCount: 2
Fore
SplineSet
792 150 m 0
 792 132 776 116 758 116 c 2
 58 116 l 2
 40 116 25 132 25 150 c 0
 25 168 40 184 58 184 c 2
 659 184 l 1
 579 245 l 2
 571 252 566 261 566 272 c 0
 566 290 581 305 600 305 c 0
 608 305 614 303 620 298 c 2
 779 177 l 2
 787 170 792 161 792 150 c 0
EndSplineSet
Validated: 1
EndChar

StartChar: uni21C1
Encoding: 37 8641 37
Width: 817
Flags: W
HStem: 116 68<28.2926 659>
LayerCount: 2
Fore
SplineSet
600 -5 m 0
 581 -5 566 10 566 28 c 0
 566 39 571 48 579 55 c 2
 659 116 l 1
 58 116 l 2
 40 116 25 132 25 150 c 0
 25 168 40 184 58 184 c 2
 758 184 l 2
 776 184 792 168 792 150 c 1
 792 139 787 130 779 123 c 2
 620 2 l 2
 614 -3 608 -5 600 -5 c 0
EndSplineSet
Validated: 1
EndChar

StartChar: uni21C2
Encoding: 38 8642 38
Width: 240
Flags: W
HStem: -234 21G<50 64.5>
VStem: 25 68<-102 530.515>
LayerCount: 2
Fore
SplineSet
59 -234 m 0
 41 -234 25 -218 25 -200 c 2
 25 500 l 2
 25 518 41 534 59 534 c 0
 77 534 93 518 93 500 c 2
 93 -102 l 1
 155 -21 l 2
 162 -12 170 -8 181 -8 c 0
 200 -8 215 -23 215 -42 c 0
 215 -50 213 -56 208 -62 c 2
 86 -221 l 2
 79 -229 70 -234 59 -234 c 0
EndSplineSet
Validated: 1
EndChar

StartChar: uni21C3
Encoding: 39 8643 39
Width: 239
Flags: W
HStem: -234 21G<174 189.5>
VStem: 146 68<-100 530.515>
LayerCount: 2
Fore
SplineSet
25 -42 m 0
 25 -23 40 -8 58 -8 c 0
 69 -8 78 -13 85 -21 c 2
 146 -100 l 1
 146 500 l 2
 146 518 162 534 180 534 c 0
 198 534 214 518 214 500 c 2
 214 -200 l 2
 214 -219 199 -234 180 -234 c 0
 168 -234 158 -228 151 -217 c 2
 32 -62 l 2
 27 -56 25 -50 25 -42 c 0
EndSplineSet
Validated: 1
EndChar

StartChar: uni21C4
Encoding: 40 8644 40
Width: 817
Flags: W
HStem: -8 66<157 788.876> 242 66<27.9501 660>
LayerCount: 2
Fore
SplineSet
218 181 m 0
 236 181 251 165 251 147 c 0
 251 136 246 126 238 120 c 2
 157 58 l 1
 758 58 l 2
 776 58 792 43 792 25 c 0
 792 7 776 -8 758 -8 c 2
 157 -8 l 1
 238 -70 l 2
 246 -76 251 -86 251 -97 c 0
 251 -115 236 -131 218 -131 c 0
 211 -131 204 -129 197 -124 c 2
 38 -2 l 2
 30 4 25 14 25 25 c 0
 25 36 30 45 38 52 c 2
 197 174 l 2
 204 179 211 181 218 181 c 0
58 242 m 2
 40 242 25 257 25 275 c 0
 25 293 40 308 58 308 c 2
 660 308 l 1
 639 324 612 345 579 370 c 0
 571 376 566 386 566 397 c 0
 566 415 581 431 599 431 c 0
 606 431 613 429 620 424 c 2
 779 302 l 2
 787 295 792 286 792 275 c 0
 792 264 787 254 779 248 c 2
 620 126 l 2
 613 121 606 119 599 119 c 0
 581 119 566 135 566 153 c 0
 566 164 571 174 579 180 c 2
 661 242 l 1
 58 242 l 2
EndSplineSet
Validated: 1
EndChar

StartChar: uni21C5
Encoding: 41 8645 41
Width: 611
Flags: W
HStem: -234 21G<172 190 425.5 437>
VStem: 148 67<-230.515 401> 398 67<-101 530.515>
LayerCount: 2
Fore
SplineSet
275 -41 m 0
 275 -23 290 -8 308 -8 c 0
 319 -8 329 -13 335 -21 c 0
 361 -55 382 -82 398 -103 c 1
 398 500 l 2
 398 518 413 534 431 534 c 0
 449 534 465 518 465 500 c 2
 465 -101 l 1
 526 -21 l 2
 532 -13 542 -8 553 -8 c 0
 571 -8 586 -23 586 -41 c 0
 586 -48 584 -55 579 -62 c 2
 460 -217 l 2
 453 -228 443 -234 431 -234 c 0
 420 -234 411 -229 404 -221 c 2
 282 -62 l 2
 277 -55 275 -48 275 -41 c 0
215 -200 m 2
 215 -218 199 -234 181 -234 c 0
 163 -234 148 -218 148 -200 c 2
 148 403 l 1
 132 382 111 355 85 321 c 0
 79 313 69 308 58 308 c 0
 40 308 25 323 25 341 c 0
 25 348 27 355 32 362 c 2
 154 521 l 2
 161 529 170 534 181 534 c 0
 193 534 203 528 210 517 c 2
 329 362 l 2
 334 355 336 348 336 341 c 0
 336 323 321 308 303 308 c 0
 292 308 282 313 276 321 c 2
 215 401 l 1
 215 -200 l 2
EndSplineSet
Validated: 1
EndChar

StartChar: uni21C6
Encoding: 42 8646 42
Width: 817
Flags: W
HStem: -8 66<27.9501 660> 242 66<157 788.876>
LayerCount: 2
Fore
SplineSet
218 431 m 0
 236 431 251 415 251 397 c 0
 251 386 246 376 238 370 c 2
 157 308 l 1
 758 308 l 2
 776 308 792 293 792 275 c 0
 792 257 776 242 758 242 c 2
 157 242 l 1
 238 180 l 2
 246 174 251 164 251 153 c 0
 251 135 236 119 218 119 c 0
 211 119 204 121 197 126 c 2
 38 248 l 2
 30 254 25 264 25 275 c 0
 25 286 30 295 38 302 c 2
 197 424 l 2
 204 429 211 431 218 431 c 0
58 -8 m 2
 40 -8 25 7 25 25 c 0
 25 43 40 58 58 58 c 2
 660 58 l 1
 639 74 612 95 579 120 c 0
 571 126 566 136 566 147 c 0
 566 165 581 181 599 181 c 0
 606 181 613 179 620 174 c 2
 779 52 l 2
 787 45 792 36 792 25 c 0
 792 14 787 4 779 -2 c 2
 620 -124 l 2
 613 -129 606 -131 599 -131 c 0
 581 -131 566 -115 566 -97 c 0
 566 -86 571 -76 579 -70 c 2
 661 -8 l 1
 58 -8 l 2
EndSplineSet
Validated: 1
EndChar

StartChar: uni21F5
Encoding: 43 8693 43
Width: 611
Flags: W
HStem: -234 21G<175.5 187 422 440>
VStem: 148 67<-101 530.515> 398 67<-230.515 401>
LayerCount: 2
Fore
SplineSet
25 -41 m 0
 25 -23 40 -8 58 -8 c 0
 69 -8 79 -13 85 -21 c 0
 111 -55 132 -82 148 -103 c 1
 148 500 l 2
 148 518 163 534 181 534 c 0
 199 534 215 518 215 500 c 2
 215 -101 l 1
 276 -21 l 2
 282 -13 292 -8 303 -8 c 0
 321 -8 336 -23 336 -41 c 0
 336 -48 334 -55 329 -62 c 2
 210 -217 l 2
 203 -228 193 -234 181 -234 c 0
 170 -234 161 -229 154 -221 c 2
 32 -62 l 2
 27 -55 25 -48 25 -41 c 0
465 -200 m 2
 465 -218 449 -234 431 -234 c 0
 413 -234 398 -218 398 -200 c 2
 398 403 l 1
 382 382 361 355 335 321 c 0
 329 313 319 308 308 308 c 0
 290 308 275 323 275 341 c 0
 275 348 277 355 282 362 c 2
 404 521 l 2
 411 529 420 534 431 534 c 0
 443 534 453 528 460 517 c 2
 579 362 l 2
 584 355 586 348 586 341 c 0
 586 323 571 308 553 308 c 0
 542 308 532 313 526 321 c 2
 465 401 l 1
 465 -200 l 2
EndSplineSet
Validated: 1
EndChar

StartChar: uni21CB
Encoding: 44 8651 44
Width: 817
Flags: W
HStem: 42 66<27.9501 660> 192 66<157 788.876>
LayerCount: 2
Fore
SplineSet
217 380 m 0
 236 380 251 365 251 347 c 0
 251 336 246 327 238 320 c 2
 157 258 l 1
 758 258 l 2
 776 258 792 243 792 225 c 0
 792 207 776 192 758 192 c 2
 58 192 l 2
 40 192 25 207 25 225 c 0
 25 236 30 245 38 252 c 2
 197 373 l 2
 203 378 209 380 217 380 c 0
600 -80 m 0
 581 -80 566 -65 566 -47 c 0
 566 -36 571 -27 579 -20 c 2
 660 42 l 1
 58 42 l 2
 40 42 25 57 25 75 c 0
 25 93 40 108 58 108 c 2
 758 108 l 2
 777 108 792 93 792 75 c 0
 792 64 787 55 779 48 c 2
 620 -73 l 2
 614 -78 608 -80 600 -80 c 0
EndSplineSet
Validated: 1
EndChar

StartChar: uni21CC
Encoding: 45 8652 45
Width: 817
Flags: W
HStem: 42 66<157 788.876> 192 66<27.9501 660>
LayerCount: 2
Fore
SplineSet
25 75 m 0
 25 93 40 108 58 108 c 2
 758 108 l 2
 776 108 792 93 792 75 c 0
 792 57 776 42 758 42 c 2
 157 42 l 1
 238 -20 l 2
 246 -27 251 -36 251 -47 c 0
 251 -65 236 -80 217 -80 c 0
 209 -80 203 -78 197 -73 c 2
 38 48 l 2
 30 55 25 64 25 75 c 0
792 225 m 0
 792 207 777 192 758 192 c 2
 58 192 l 2
 40 192 25 207 25 225 c 0
 25 243 40 258 58 258 c 2
 660 258 l 1
 579 320 l 2
 571 327 566 336 566 347 c 0
 566 365 581 380 600 380 c 0
 608 380 614 378 620 373 c 2
 779 252 l 2
 787 245 792 236 792 225 c 0
EndSplineSet
Validated: 1
EndChar

StartChar: uni21CD
Encoding: 46 8653 46
Width: 817
Flags: W
HStem: 42 66<175 317 425 788.876> 192 66<175 392 500 788.876>
LayerCount: 2
Fore
SplineSet
128 108 m 1
 350 108 l 1
 392 192 l 1
 128 192 l 1
 99 150 l 1
 128 108 l 1
231 429 m 0
 249 429 264 414 264 396 c 0
 264 389 262 382 258 377 c 2
 175 258 l 1
 425 258 l 1
 463 333 l 2
 469 344 480 352 493 352 c 0
 511 352 526 336 526 318 c 0
 526 313 524 308 522 303 c 2
 500 258 l 1
 758 258 l 2
 776 258 792 243 792 225 c 0
 792 207 776 192 758 192 c 2
 467 192 l 1
 425 108 l 1
 758 108 l 2
 776 108 792 93 792 75 c 0
 792 57 776 42 758 42 c 2
 392 42 l 1
 355 -31 l 2
 349 -42 339 -50 326 -50 c 0
 308 -50 292 -34 292 -16 c 0
 292 -11 294 -6 296 -1 c 2
 317 42 l 1
 175 42 l 1
 258 -77 l 2
 262 -82 264 -89 264 -96 c 0
 264 -114 249 -129 231 -129 c 0
 219 -129 209 -124 203 -115 c 2
 31 131 l 2
 25 143 25 143 25 150 c 0
 25 157 27 163 31 169 c 2
 203 415 l 2
 209 424 219 429 231 429 c 0
EndSplineSet
Validated: 1
EndChar

StartChar: uni21CE
Encoding: 47 8654 47
Width: 817
Flags: W
HStem: 42 66<175 317 425 642> 192 66<175 392 500 642>
LayerCount: 2
Fore
SplineSet
350 108 m 1
 392 192 l 1
 128 192 l 1
 99 150 l 1
 128 108 l 1
 350 108 l 1
425 108 m 1
 689 108 l 1
 718 150 l 1
 689 192 l 1
 467 192 l 1
 425 108 l 1
325 -50 m 0
 307 -50 291 -34 291 -16 c 0
 291 -11 293 -7 295 -2 c 2
 317 42 l 1
 175 42 l 1
 258 -77 l 2
 262 -82 264 -89 264 -96 c 0
 264 -114 249 -129 231 -129 c 0
 219 -129 209 -124 203 -115 c 2
 31 131 l 2
 25 143 25 143 25 150 c 0
 25 157 27 163 31 169 c 2
 203 415 l 2
 209 424 219 429 231 429 c 0
 249 429 264 414 264 396 c 0
 264 389 262 382 258 377 c 2
 175 258 l 1
 425 258 l 1
 462 333 l 2
 468 344 479 351 492 351 c 0
 510 351 526 336 526 318 c 0
 526 313 524 308 522 303 c 2
 500 258 l 1
 642 258 l 1
 559 377 l 2
 555 382 553 389 553 396 c 0
 553 414 569 429 587 429 c 0
 598 429 608 424 614 415 c 2
 786 169 l 2
 792 157 792 157 792 150 c 0
 792 143 790 137 786 131 c 2
 614 -115 l 2
 608 -124 598 -129 587 -129 c 0
 569 -129 553 -114 553 -96 c 0
 553 -89 555 -82 559 -77 c 2
 642 42 l 1
 392 42 l 1
 355 -32 l 2
 349 -43 338 -50 325 -50 c 0
EndSplineSet
Validated: 1
EndChar

StartChar: uni21CF
Encoding: 48 8655 48
Width: 817
Flags: W
HStem: 42 66<27.9501 317 425 642> 192 66<27.9501 392 500 642>
LayerCount: 2
Fore
SplineSet
425 108 m 1
 689 108 l 1
 718 150 l 1
 689 192 l 1
 467 192 l 1
 425 108 l 1
58 192 m 2
 40 192 25 207 25 225 c 0
 25 243 40 258 58 258 c 2
 425 258 l 1
 463 333 l 2
 469 344 480 352 493 352 c 0
 511 352 526 336 526 318 c 0
 526 313 524 308 522 303 c 2
 500 258 l 1
 642 258 l 1
 559 377 l 2
 555 382 553 389 553 396 c 0
 553 414 569 429 587 429 c 0
 598 429 608 424 614 415 c 2
 786 169 l 2
 792 157 792 157 792 150 c 0
 792 143 790 137 786 131 c 2
 614 -115 l 2
 608 -124 598 -129 587 -129 c 0
 569 -129 553 -114 553 -96 c 0
 553 -89 555 -82 559 -77 c 2
 642 42 l 1
 392 42 l 1
 355 -31 l 2
 349 -42 339 -50 326 -50 c 0
 308 -50 292 -34 292 -16 c 0
 292 -11 294 -6 296 -1 c 2
 317 42 l 1
 58 42 l 2
 40 42 25 57 25 75 c 0
 25 93 40 108 58 108 c 2
 350 108 l 1
 392 192 l 1
 58 192 l 2
EndSplineSet
Validated: 1
EndChar

StartChar: arrowdblleft
Encoding: 49 8656 49
Width: 817
Flags: W
HStem: 42 66<175 788.876> 192 66<175 788.876>
LayerCount: 2
Fore
SplineSet
231 429 m 0
 249 429 264 414 264 396 c 0
 264 389 262 382 258 377 c 2
 175 258 l 1
 758 258 l 2
 776 258 792 243 792 225 c 0
 792 207 776 192 758 192 c 2
 128 192 l 1
 99 150 l 1
 128 108 l 1
 758 108 l 2
 776 108 792 93 792 75 c 0
 792 57 776 42 758 42 c 2
 175 42 l 1
 258 -77 l 2
 262 -82 264 -89 264 -96 c 0
 264 -114 249 -129 231 -129 c 0
 219 -129 209 -124 203 -115 c 2
 31 131 l 2
 25 143 25 143 25 150 c 0
 25 157 27 163 31 169 c 2
 203 415 l 2
 209 424 219 429 231 429 c 0
EndSplineSet
Validated: 1
EndChar

StartChar: arrowdblup
Encoding: 50 8657 50
Width: 609
Flags: W
HStem: -234 21G<221 239 371 389>
VStem: 197 67<-230.515 384> 347 67<-230.515 383>
LayerCount: 2
Fore
SplineSet
264 -200 m 2
 264 -218 248 -234 230 -234 c 0
 212 -234 197 -218 197 -200 c 2
 197 384 l 1
 78 301 l 2
 73 297 65 294 59 294 c 0
 41 294 25 310 25 328 c 0
 25 339 31 349 40 355 c 2
 286 527 l 2
 286 527 287 528 288 528 c 0
 291 530 297 534 305 534 c 0
 311 534 317 532 324 527 c 2
 570 355 l 2
 579 349 584 339 584 328 c 0
 584 310 569 294 551 294 c 0
 545 294 537 297 532 301 c 2
 414 383 l 1
 414 -200 l 2
 414 -218 398 -234 380 -234 c 0
 362 -234 347 -218 347 -200 c 2
 347 430 l 1
 305 459 l 1
 264 430 l 1
 264 -200 l 2
EndSplineSet
Validated: 1
EndChar

StartChar: arrowdblright
Encoding: 51 8658 51
Width: 817
Flags: W
HStem: 42 66<27.9501 642> 192 66<27.9501 642>
LayerCount: 2
Fore
SplineSet
58 192 m 2
 40 192 25 207 25 225 c 0
 25 243 40 258 58 258 c 2
 642 258 l 1
 559 377 l 2
 555 382 553 389 553 396 c 0
 553 414 569 429 587 429 c 0
 598 429 608 424 614 415 c 2
 786 169 l 2
 792 157 792 157 792 150 c 0
 792 143 790 137 786 131 c 2
 614 -115 l 2
 608 -124 598 -129 587 -129 c 0
 569 -129 553 -114 553 -96 c 0
 553 -89 555 -82 559 -77 c 2
 642 42 l 1
 58 42 l 2
 40 42 25 57 25 75 c 0
 25 93 40 108 58 108 c 2
 689 108 l 1
 718 150 l 1
 689 192 l 1
 58 192 l 2
EndSplineSet
Validated: 1
EndChar

StartChar: arrowdbldown
Encoding: 52 8659 52
Width: 609
Flags: W
HStem: -234 21G<302 309>
VStem: 197 67<-84 530.515> 347 67<-83 530.515>
LayerCount: 2
Fore
SplineSet
25 -28 m 0
 25 -10 41 6 59 6 c 0
 65 6 73 3 78 -1 c 2
 197 -84 l 1
 197 500 l 2
 197 518 212 534 230 534 c 0
 248 534 264 518 264 500 c 2
 264 -130 l 1
 305 -159 l 1
 347 -130 l 1
 347 500 l 2
 347 518 362 534 380 534 c 0
 398 534 414 518 414 500 c 2
 414 -83 l 1
 532 -1 l 2
 537 3 545 6 551 6 c 0
 569 6 584 -10 584 -28 c 0
 584 -39 579 -49 570 -55 c 2
 324 -227 l 2
 324 -227 323 -228 322 -228 c 0
 319 -230 313 -234 305 -234 c 0
 299 -234 293 -232 286 -227 c 2
 40 -55 l 2
 31 -49 25 -39 25 -28 c 0
EndSplineSet
Validated: 1
EndChar

StartChar: arrowdblboth
Encoding: 53 8660 53
Width: 817
Flags: W
HStem: 42 66<175 642> 192 66<175 642>
LayerCount: 2
Fore
SplineSet
128 108 m 1
 689 108 l 1
 718 150 l 1
 689 192 l 1
 128 192 l 1
 99 150 l 1
 128 108 l 1
231 429 m 0
 249 429 264 414 264 396 c 0
 264 389 262 382 258 377 c 2
 175 258 l 1
 642 258 l 1
 559 377 l 2
 555 382 553 389 553 396 c 0
 553 414 569 429 587 429 c 0
 598 429 608 424 614 415 c 2
 786 169 l 2
 792 157 792 157 792 150 c 0
 792 143 790 137 786 131 c 2
 614 -115 l 2
 608 -124 598 -129 587 -129 c 0
 569 -129 553 -114 553 -96 c 0
 553 -89 555 -82 559 -77 c 2
 642 42 l 1
 175 42 l 1
 258 -77 l 2
 262 -82 264 -89 264 -96 c 0
 264 -114 249 -129 231 -129 c 0
 219 -129 209 -124 203 -115 c 2
 31 131 l 2
 25 143 25 143 25 150 c 0
 25 157 27 163 31 169 c 2
 203 415 l 2
 209 424 219 429 231 429 c 0
EndSplineSet
Validated: 1
EndChar

StartChar: uni21D5
Encoding: 54 8661 54
Width: 609
Flags: W
HStem: -234 21G<302 309>
VStem: 197 67<-84 384> 347 67<-83 383>
LayerCount: 2
Fore
SplineSet
264 430 m 1
 264 -130 l 1
 305 -159 l 1
 347 -130 l 1
 347 430 l 1
 305 459 l 1
 264 430 l 1
584 328 m 0
 584 310 569 294 551 294 c 0
 545 294 537 297 532 301 c 2
 414 383 l 1
 414 -83 l 1
 532 -1 l 2
 537 3 545 6 551 6 c 0
 569 6 584 -10 584 -28 c 0
 584 -39 579 -49 570 -55 c 2
 324 -227 l 2
 324 -227 323 -228 322 -228 c 0
 319 -230 313 -234 305 -234 c 0
 299 -234 293 -232 286 -227 c 2
 40 -55 l 2
 31 -49 25 -39 25 -28 c 0
 25 -10 41 6 59 6 c 0
 65 6 73 3 78 -1 c 2
 197 -84 l 1
 197 384 l 1
 78 301 l 2
 73 297 65 294 59 294 c 0
 41 294 25 310 25 328 c 0
 25 339 31 349 40 355 c 2
 286 527 l 2
 286 527 287 528 288 528 c 0
 291 530 297 534 305 534 c 0
 311 534 317 532 324 527 c 2
 570 355 l 2
 579 349 584 339 584 328 c 0
EndSplineSet
Validated: 1
EndChar

StartChar: uni21D6
Encoding: 55 8662 55
Width: 755
Flags: W
LayerCount: 2
Fore
SplineSet
401 520 m 2
 403 520 406 521 408 521 c 0
 428 521 439 502 439 485 c 0
 439 470 431 457 413 454 c 2
 270 429 l 1
 720 -21 l 2
 726 -27 730 -36 730 -44 c 0
 730 -52 726 -62 720 -68 c 0
 714 -74 705 -78 696 -78 c 0
 687 -78 678 -74 672 -68 c 2
 190 415 l 1
 140 406 l 1
 131 356 l 1
 614 -127 l 2
 620 -133 624 -142 624 -150 c 0
 624 -158 620 -168 614 -174 c 0
 608 -180 599 -184 590 -184 c 0
 581 -184 572 -180 566 -174 c 2
 117 276 l 1
 92 133 l 2
 90 116 74 106 58 106 c 0
 49 106 42 109 35 116 c 0
 29 122 25 131 25 139 c 0
 25 141 26 143 26 145 c 2
 78 441 l 2
 78 452 93 466 105 468 c 2
 401 520 l 2
EndSplineSet
Validated: 1
EndChar

StartChar: uni21D7
Encoding: 56 8663 56
Width: 756
Flags: W
LayerCount: 2
Fore
SplineSet
83 -68 m 2
 77 -74 68 -78 59 -78 c 0
 50 -78 41 -74 35 -68 c 0
 29 -62 25 -52 25 -44 c 0
 25 -36 29 -27 35 -21 c 2
 485 429 l 1
 343 454 l 2
 326 456 316 471 316 487 c 0
 316 496 319 504 326 511 c 0
 332 517 341 521 349 521 c 0
 351 521 353 520 355 520 c 2
 651 468 l 2
 662 468 676 453 678 441 c 2
 730 145 l 2
 730 143 731 140 731 138 c 0
 731 118 712 107 695 107 c 0
 680 107 667 115 664 133 c 2
 639 276 l 1
 189 -174 l 2
 183 -180 174 -184 165 -184 c 0
 156 -184 147 -180 141 -174 c 0
 135 -168 131 -158 131 -150 c 0
 131 -142 135 -133 141 -127 c 2
 625 357 l 1
 616 406 l 1
 566 415 l 1
 83 -68 l 2
EndSplineSet
Validated: 1
EndChar

StartChar: uni21D8
Encoding: 57 8664 57
Width: 756
Flags: W
LayerCount: 2
Fore
SplineSet
141 427 m 2
 135 433 131 442 131 450 c 0
 131 458 135 468 141 474 c 0
 147 480 156 484 165 484 c 0
 174 484 183 480 189 474 c 2
 639 24 l 1
 664 167 l 2
 666 184 681 194 697 194 c 0
 706 194 714 191 721 184 c 0
 727 178 731 169 731 161 c 0
 731 159 730 157 730 155 c 2
 678 -141 l 2
 678 -152 663 -166 651 -168 c 2
 355 -220 l 2
 353 -220 350 -221 348 -221 c 0
 328 -221 317 -202 317 -185 c 0
 317 -170 325 -157 343 -154 c 2
 485 -129 l 1
 35 321 l 2
 29 327 25 336 25 344 c 0
 25 352 29 362 35 368 c 0
 41 374 50 378 59 378 c 0
 68 378 77 374 83 368 c 2
 566 -115 l 1
 616 -106 l 1
 625 -57 l 1
 141 427 l 2
EndSplineSet
Validated: 1
EndChar

StartChar: uni21D9
Encoding: 58 8665 58
Width: 755
Flags: W
LayerCount: 2
Fore
SplineSet
26 155 m 2
 26 157 25 160 25 162 c 0
 25 182 43 193 60 193 c 0
 75 193 89 185 92 167 c 2
 117 24 l 1
 566 474 l 2
 572 480 581 484 590 484 c 0
 599 484 608 480 614 474 c 0
 620 468 624 458 624 450 c 0
 624 442 620 433 614 427 c 2
 131 -56 l 1
 140 -106 l 1
 190 -115 l 1
 672 368 l 2
 678 374 687 378 696 378 c 0
 705 378 714 374 720 368 c 0
 726 362 730 352 730 344 c 0
 730 336 726 327 720 321 c 2
 270 -129 l 1
 413 -154 l 2
 430 -156 439 -171 439 -187 c 0
 439 -196 437 -204 430 -211 c 0
 424 -217 415 -221 407 -221 c 0
 405 -221 403 -220 401 -220 c 2
 105 -168 l 2
 93 -168 80 -155 78 -141 c 2
 26 155 l 2
EndSplineSet
Validated: 1
EndChar

StartChar: uni21E4
Encoding: 59 8676 59
Width: 817
Flags: W
HStem: 0 21G<49 67> 116 68<275 788.515> 280 20G<49 67>
VStem: 25 67<3.48541 296.515>
LayerCount: 2
Fore
SplineSet
335 306 m 0
 353 306 368 290 368 272 c 0
 368 261 363 251 355 245 c 2
 275 184 l 1
 758 184 l 2
 776 184 792 168 792 150 c 0
 792 132 776 116 758 116 c 2
 275 116 l 1
 355 55 l 2
 363 49 368 39 368 28 c 0
 368 10 353 -6 335 -6 c 0
 328 -6 321 -4 314 1 c 2
 155 123 l 2
 147 129 142 139 142 150 c 0
 142 161 147 170 155 177 c 2
 314 299 l 2
 321 304 328 306 335 306 c 0
92 34 m 2
 92 16 76 0 58 0 c 0
 40 0 25 16 25 34 c 2
 25 266 l 2
 25 284 40 300 58 300 c 0
 76 300 92 284 92 266 c 2
 92 34 l 2
EndSplineSet
Validated: 1
EndChar

StartChar: uni21E5
Encoding: 60 8677 60
Width: 817
Flags: W
HStem: 0 21G<749 767> 116 68<28.2926 542> 280 20G<749 767>
VStem: 725 67<3.48541 296.515>
LayerCount: 2
Fore
SplineSet
792 34 m 2
 792 16 776 0 758 0 c 0
 740 0 725 16 725 34 c 2
 725 266 l 2
 725 284 740 300 758 300 c 0
 776 300 792 284 792 266 c 2
 792 34 l 2
58 116 m 2
 40 116 25 132 25 150 c 0
 25 168 40 184 58 184 c 2
 542 184 l 1
 521 200 494 220 462 245 c 0
 454 251 449 261 449 272 c 0
 449 290 464 306 482 306 c 0
 489 306 496 304 503 299 c 2
 662 177 l 2
 670 170 675 161 675 150 c 0
 675 139 670 129 662 123 c 2
 503 1 l 2
 496 -4 489 -6 482 -6 c 0
 464 -6 449 10 449 28 c 0
 449 39 454 49 462 55 c 2
 542 116 l 1
 58 116 l 2
EndSplineSet
Validated: 1
EndChar

StartChar: uni21E6
Encoding: 61 8678 61
Width: 817
Flags: W
HStem: 116 68<158 788.515>
LayerCount: 2
Fore
SplineSet
218 306 m 0
 236 306 251 290 251 272 c 0
 251 261 246 251 238 245 c 2
 158 184 l 1
 758 184 l 2
 776 184 792 168 792 150 c 0
 792 132 776 116 758 116 c 2
 158 116 l 1
 238 55 l 2
 246 49 251 39 251 28 c 0
 251 10 236 -6 218 -6 c 0
 211 -6 204 -4 197 1 c 2
 38 123 l 2
 30 129 25 139 25 150 c 0
 25 161 30 170 38 177 c 2
 197 299 l 2
 204 304 211 306 218 306 c 0
EndSplineSet
Validated: 1
EndChar

StartChar: uni21E7
Encoding: 62 8679 62
Width: 361
Flags: W
HStem: -234 21G<172 190>
VStem: 147 68<-230.515 401>
LayerCount: 2
Fore
SplineSet
215 -200 m 2
 215 -218 199 -234 181 -234 c 0
 163 -234 147 -218 147 -200 c 2
 147 402 l 1
 131 381 110 354 85 321 c 0
 79 313 69 308 58 308 c 0
 40 308 25 323 25 341 c 0
 25 348 27 355 32 362 c 2
 154 521 l 2
 161 529 170 534 181 534 c 0
 193 534 203 528 210 517 c 2
 329 362 l 2
 334 355 336 348 336 341 c 0
 336 323 321 308 303 308 c 0
 292 308 282 313 276 321 c 2
 215 401 l 1
 215 -200 l 2
EndSplineSet
Validated: 1
EndChar

StartChar: uni21E8
Encoding: 63 8680 63
Width: 817
Flags: W
HStem: 116 68<28.2926 659>
LayerCount: 2
Fore
SplineSet
58 116 m 2
 40 116 25 132 25 150 c 0
 25 168 40 184 58 184 c 2
 659 184 l 1
 638 200 611 220 579 245 c 0
 571 251 566 261 566 272 c 0
 566 290 581 306 599 306 c 0
 606 306 613 304 620 299 c 2
 779 177 l 2
 787 170 792 161 792 150 c 0
 792 139 787 129 779 123 c 2
 620 1 l 2
 613 -4 606 -6 599 -6 c 0
 581 -6 566 10 566 28 c 0
 566 39 571 49 579 55 c 2
 659 116 l 1
 58 116 l 2
EndSplineSet
Validated: 1
EndChar

StartChar: uni21E9
Encoding: 64 8681 64
Width: 361
Flags: W
HStem: -234 21G<175.5 187>
VStem: 147 68<-101 530.515>
LayerCount: 2
Fore
SplineSet
25 -41 m 0
 25 -23 40 -8 58 -8 c 0
 69 -8 79 -13 85 -21 c 0
 110 -54 131 -81 147 -102 c 1
 147 500 l 2
 147 518 163 534 181 534 c 0
 199 534 215 518 215 500 c 2
 215 -101 l 1
 276 -21 l 2
 282 -13 292 -8 303 -8 c 0
 321 -8 336 -23 336 -41 c 0
 336 -48 334 -55 329 -62 c 2
 210 -217 l 2
 203 -228 193 -234 181 -234 c 0
 170 -234 161 -229 154 -221 c 2
 32 -62 l 2
 27 -55 25 -48 25 -41 c 0
EndSplineSet
Validated: 1
EndChar

StartChar: uni21F3
Encoding: 65 8691 65
Width: 361
Flags: W
HStem: -234 21G<175.5 187>
VStem: 147 68<-101 401>
LayerCount: 2
Fore
SplineSet
25 341 m 0
 25 348 27 355 32 362 c 2
 154 521 l 2
 161 529 170 534 181 534 c 0
 193 534 203 528 210 517 c 2
 329 362 l 2
 334 355 336 348 336 341 c 0
 336 323 321 308 303 308 c 0
 292 308 282 313 276 321 c 2
 215 401 l 1
 215 -101 l 1
 276 -21 l 2
 282 -13 292 -8 303 -8 c 0
 321 -8 336 -23 336 -41 c 0
 336 -48 334 -55 329 -62 c 2
 210 -217 l 2
 203 -228 193 -234 181 -234 c 0
 170 -234 161 -229 154 -221 c 2
 32 -62 l 2
 27 -55 25 -48 25 -41 c 0
 25 -23 40 -8 58 -8 c 0
 69 -8 79 -13 85 -21 c 0
 110 -54 131 -81 147 -102 c 1
 147 402 l 1
 131 381 110 354 85 321 c 0
 79 313 69 308 58 308 c 0
 40 308 25 323 25 341 c 0
EndSplineSet
Validated: 1
EndChar

StartChar: uni21F7
Encoding: 66 8695 66
Width: 817
Flags: W
HStem: 0 21G<400 418> 116 68<158 376 443 788.515> 280 20G<400 418>
VStem: 376 67<3.48541 116 184 296.515>
LayerCount: 2
Fore
SplineSet
443 34 m 2
 443 16 427 0 409 0 c 0
 391 0 376 16 376 34 c 2
 376 116 l 1
 158 116 l 1
 238 55 l 2
 246 49 251 39 251 28 c 0
 251 10 236 -6 218 -6 c 0
 211 -6 204 -4 197 1 c 2
 38 123 l 2
 30 129 25 139 25 150 c 0
 25 161 30 170 38 177 c 2
 197 299 l 2
 204 304 211 306 218 306 c 0
 236 306 251 290 251 272 c 0
 251 261 246 251 238 245 c 2
 158 184 l 1
 376 184 l 1
 376 266 l 2
 376 284 391 300 409 300 c 0
 427 300 443 284 443 266 c 2
 443 184 l 1
 758 184 l 2
 776 184 792 168 792 150 c 0
 792 132 776 116 758 116 c 2
 443 116 l 1
 443 34 l 2
EndSplineSet
Validated: 1
EndChar

StartChar: uni21F8
Encoding: 67 8696 67
Width: 817
Flags: W
HStem: 0 21G<400 418> 116 68<28.2926 376 443 659> 280 20G<400 418>
VStem: 376 67<3.48541 116 184 296.515>
LayerCount: 2
Fore
SplineSet
58 116 m 2
 40 116 25 132 25 150 c 0
 25 168 40 184 58 184 c 2
 376 184 l 1
 376 266 l 2
 376 284 391 300 409 300 c 0
 427 300 443 284 443 266 c 2
 443 184 l 1
 659 184 l 1
 638 200 611 220 579 245 c 0
 571 251 566 261 566 272 c 0
 566 290 581 306 599 306 c 0
 606 306 613 304 620 299 c 2
 779 177 l 2
 787 170 792 161 792 150 c 0
 792 139 787 129 779 123 c 2
 620 1 l 2
 613 -4 606 -6 599 -6 c 0
 581 -6 566 10 566 28 c 0
 566 39 571 49 579 55 c 2
 659 116 l 1
 443 116 l 1
 443 34 l 2
 443 16 427 0 409 0 c 0
 391 0 376 16 376 34 c 2
 376 116 l 1
 58 116 l 2
EndSplineSet
Validated: 1
EndChar

StartChar: uni21F9
Encoding: 68 8697 68
Width: 817
Flags: W
HStem: 0 21G<400 418> 116 68<158 376 443 659> 280 20G<400 418>
VStem: 376 67<3.48541 116 184 296.515>
LayerCount: 2
Fore
SplineSet
443 34 m 2
 443 16 427 0 409 0 c 0
 391 0 376 16 376 34 c 2
 376 116 l 1
 158 116 l 1
 238 55 l 2
 246 49 251 39 251 28 c 0
 251 10 236 -6 218 -6 c 0
 211 -6 204 -4 197 1 c 2
 38 123 l 2
 30 129 25 139 25 150 c 0
 25 161 30 170 38 177 c 2
 197 299 l 2
 204 304 211 306 218 306 c 0
 236 306 251 290 251 272 c 0
 251 261 246 251 238 245 c 2
 158 184 l 1
 376 184 l 1
 376 266 l 2
 376 284 391 300 409 300 c 0
 427 300 443 284 443 266 c 2
 443 184 l 1
 659 184 l 1
 638 200 611 220 579 245 c 0
 571 251 566 261 566 272 c 0
 566 290 581 306 599 306 c 0
 606 306 613 304 620 299 c 2
 779 177 l 2
 787 170 792 161 792 150 c 0
 792 139 787 129 779 123 c 2
 620 1 l 2
 613 -4 606 -6 599 -6 c 0
 581 -6 566 10 566 28 c 0
 566 39 571 49 579 55 c 2
 659 116 l 1
 443 116 l 1
 443 34 l 2
EndSplineSet
Validated: 1
EndChar

StartChar: uni21FD
Encoding: 69 8701 69
Width: 817
Flags: W
HStem: 116 68<158 788.515>
LayerCount: 2
Fore
SplineSet
218 306 m 0
 236 306 251 290 251 272 c 0
 251 261 246 251 238 245 c 2
 158 184 l 1
 758 184 l 2
 776 184 792 168 792 150 c 0
 792 132 776 116 758 116 c 2
 158 116 l 1
 238 55 l 2
 246 49 251 39 251 28 c 0
 251 10 236 -6 218 -6 c 0
 211 -6 204 -4 197 1 c 2
 38 123 l 2
 30 129 25 139 25 150 c 0
 25 161 30 170 38 177 c 2
 197 299 l 2
 204 304 211 306 218 306 c 0
EndSplineSet
Validated: 1
EndChar

StartChar: uni21FE
Encoding: 70 8702 70
Width: 817
Flags: W
HStem: 116 68<28.2926 659>
LayerCount: 2
Fore
SplineSet
58 116 m 2
 40 116 25 132 25 150 c 0
 25 168 40 184 58 184 c 2
 659 184 l 1
 638 200 611 220 579 245 c 0
 571 251 566 261 566 272 c 0
 566 290 581 306 599 306 c 0
 606 306 613 304 620 299 c 2
 779 177 l 2
 787 170 792 161 792 150 c 0
 792 139 787 129 779 123 c 2
 620 1 l 2
 613 -4 606 -6 599 -6 c 0
 581 -6 566 10 566 28 c 0
 566 39 571 49 579 55 c 2
 659 116 l 1
 58 116 l 2
EndSplineSet
Validated: 1
EndChar

StartChar: uni21FF
Encoding: 71 8703 71
Width: 817
Flags: W
HStem: 116 68<158 659>
LayerCount: 2
Fore
SplineSet
218 306 m 0
 236 306 251 290 251 272 c 0
 251 261 246 251 238 245 c 2
 158 184 l 1
 659 184 l 1
 638 200 611 220 579 245 c 0
 571 251 566 261 566 272 c 0
 566 290 581 306 599 306 c 0
 606 306 613 304 620 299 c 2
 779 177 l 2
 787 170 792 161 792 150 c 0
 792 139 787 129 779 123 c 2
 620 1 l 2
 613 -4 606 -6 599 -6 c 0
 581 -6 566 10 566 28 c 0
 566 39 571 49 579 55 c 2
 659 116 l 1
 158 116 l 1
 238 55 l 2
 246 49 251 39 251 28 c 0
 251 10 236 -6 218 -6 c 0
 211 -6 204 -4 197 1 c 2
 38 123 l 2
 30 129 25 139 25 150 c 0
 25 161 30 170 38 177 c 2
 197 299 l 2
 204 304 211 306 218 306 c 0
EndSplineSet
Validated: 1
EndChar

StartChar: uni27F2
Encoding: 72 10226 72
Width: 488
Flags: W
HStem: -132 67<138.404 292.949> 301 67<146.973 294.938>
VStem: 396 67<38.4892 198.8>
LayerCount: 2
Fore
SplineSet
89 -12 m 1
 121 -43 173 -65 213 -65 c 0
 315 -65 396 16 396 119 c 0
 396 221 315 301 213 301 c 0
 187 301 164 297 143 290 c 1
 261 258 l 2
 277 255 286 240 286 225 c 0
 286 212 279 199 266 194 c 0
 261 192 255 191 244 193 c 2
 50 245 l 2
 35 248 25 265 25 280 c 0
 25 285 26 290 29 295 c 2
 129 468 l 2
 137 480 148 485 159 485 c 0
 177 485 193 471 193 452 c 0
 193 446 192 440 188 434 c 2
 146 361 l 1
 167 366 189 368 213 368 c 0
 351 368 463 257 463 119 c 0
 463 -20 351 -132 213 -132 c 0
 147 -132 53 -88 30 -45 c 0
 27 -41 26 -35 26 -28 c 0
 26 -10 42 5 60 5 c 0
 72 5 82 -1 89 -12 c 1
EndSplineSet
Validated: 1
EndChar

StartChar: uni27F3
Encoding: 73 10227 73
Width: 488
Flags: W
HStem: -132 67<195.901 336.722> 179 65<205.095 251.088> 301 67<195.489 333.97>
VStem: 25 67<38.0505 197.949>
LayerCount: 2
Fore
SplineSet
276 -65 m 0
 310 -65 331 -50 352 -36 c 0
 373 -22 394 -8 428 -8 c 0
 446 -8 462 -23 462 -41 c 0
 462 -54 455 -65 442 -74 c 0
 390 -116 343 -132 276 -132 c 0
 138 -132 25 -20 25 118 c 0
 25 256 137 368 276 368 c 0
 295 368 315 365 335 360 c 1
 325 377 313 397 300 420 c 0
 296 426 295 432 295 438 c 0
 295 457 312 471 330 471 c 0
 341 471 351 466 359 454 c 2
 459 281 l 2
 462 276 463 271 463 266 c 0
 463 251 453 234 438 231 c 2
 244 179 l 1
 242 179 240 179 238 179 c 0
 215 179 201 197 201 215 c 0
 201 228 209 240 227 244 c 2
 357 278 l 1
 330 293 301 301 276 301 c 0
 173 301 92 220 92 118 c 0
 92 16 174 -65 276 -65 c 0
EndSplineSet
Validated: 1
EndChar

StartChar: uni27F5
Encoding: 74 10229 74
Width: 900
Flags: W
HStem: 116 68<158 871.707>
LayerCount: 2
Fore
SplineSet
218 306 m 0
 236 306 251 290 251 272 c 0
 251 261 246 251 238 245 c 2
 158 184 l 1
 842 184 l 2
 860 184 875 168 875 150 c 0
 875 132 860 116 842 116 c 2
 158 116 l 1
 238 55 l 2
 246 49 251 39 251 28 c 0
 251 10 236 -6 218 -6 c 0
 211 -6 204 -4 197 1 c 2
 38 123 l 2
 30 129 25 139 25 150 c 0
 25 161 30 170 38 177 c 2
 197 299 l 2
 204 304 211 306 218 306 c 0
EndSplineSet
Validated: 1
EndChar

StartChar: uni27F6
Encoding: 75 10230 75
Width: 900
Flags: W
HStem: 116 68<28.2926 742>
LayerCount: 2
Fore
SplineSet
58 116 m 2
 40 116 25 132 25 150 c 0
 25 168 40 184 58 184 c 2
 742 184 l 1
 721 200 694 220 662 245 c 0
 654 251 649 261 649 272 c 0
 649 290 664 306 682 306 c 0
 689 306 696 304 703 299 c 2
 862 177 l 2
 870 170 875 161 875 150 c 0
 875 139 870 129 862 123 c 2
 703 1 l 2
 696 -4 689 -6 682 -6 c 0
 664 -6 649 10 649 28 c 0
 649 39 654 49 662 55 c 2
 742 116 l 1
 58 116 l 2
EndSplineSet
Validated: 1
EndChar

StartChar: uni27F7
Encoding: 76 10231 76
Width: 900
Flags: W
HStem: 116 68<158 742>
LayerCount: 2
Fore
SplineSet
218 306 m 0
 236 306 251 290 251 272 c 0
 251 261 246 251 238 245 c 2
 158 184 l 1
 742 184 l 1
 721 200 694 220 662 245 c 0
 654 251 649 261 649 272 c 0
 649 290 664 306 682 306 c 0
 689 306 696 304 703 299 c 2
 862 177 l 2
 870 170 875 161 875 150 c 0
 875 139 870 129 862 123 c 2
 703 1 l 2
 696 -4 689 -6 682 -6 c 0
 664 -6 649 10 649 28 c 0
 649 39 654 49 662 55 c 2
 742 116 l 1
 158 116 l 1
 238 55 l 2
 246 49 251 39 251 28 c 0
 251 10 236 -6 218 -6 c 0
 211 -6 204 -4 197 1 c 2
 38 123 l 2
 30 129 25 139 25 150 c 0
 25 161 30 170 38 177 c 2
 197 299 l 2
 204 304 211 306 218 306 c 0
EndSplineSet
Validated: 1
EndChar

StartChar: uni27F8
Encoding: 77 10232 77
Width: 900
Flags: W
HStem: 41 68<175 870.972> 192 66<175 872.05>
LayerCount: 2
Fore
SplineSet
231 429 m 0
 249 429 264 414 264 396 c 0
 264 389 262 382 258 377 c 2
 175 258 l 1
 842 258 l 2
 860 258 875 243 875 225 c 0
 875 207 860 192 842 192 c 2
 128 192 l 1
 99 150 l 1
 128 109 l 1
 842 108 l 2
 860 108 875 92 875 74 c 0
 875 56 860 40 842 40 c 2
 175 41 l 1
 258 -77 l 2
 262 -82 264 -89 264 -96 c 0
 264 -114 249 -129 231 -129 c 0
 219 -129 209 -124 203 -115 c 2
 31 131 l 2
 25 143 25 143 25 150 c 0
 25 157 27 163 31 169 c 2
 203 415 l 2
 209 424 219 429 231 429 c 0
EndSplineSet
Validated: 1
EndChar

StartChar: uni27F9
Encoding: 78 10233 78
Width: 900
Flags: W
HStem: 40 68<28.2926 725> 192 66<27.9501 725>
LayerCount: 2
Fore
SplineSet
58 192 m 2
 40 192 25 207 25 225 c 0
 25 243 40 258 58 258 c 2
 725 258 l 1
 642 377 l 2
 638 382 636 389 636 396 c 0
 636 414 652 429 670 429 c 0
 681 429 691 424 697 415 c 2
 869 169 l 2
 875 157 875 157 875 150 c 0
 875 143 873 137 869 131 c 2
 697 -115 l 2
 691 -124 681 -129 670 -129 c 0
 652 -129 636 -114 636 -96 c 0
 636 -89 638 -82 642 -77 c 2
 725 41 l 1
 58 40 l 2
 40 40 25 56 25 74 c 0
 25 92 40 108 58 108 c 2
 772 109 l 1
 801 150 l 1
 772 192 l 1
 58 192 l 2
EndSplineSet
Validated: 1
EndChar

StartChar: uni27FA
Encoding: 79 10234 79
Width: 900
Flags: W
HStem: 41 68<175 725> 192 66<175 725>
LayerCount: 2
Fore
SplineSet
231 429 m 0
 249 429 264 414 264 396 c 0
 264 389 262 382 258 377 c 2
 175 258 l 1
 725 258 l 1
 642 377 l 2
 638 382 636 389 636 396 c 0
 636 414 652 429 670 429 c 0
 681 429 691 424 697 415 c 2
 869 169 l 2
 875 157 875 157 875 150 c 0
 875 143 873 137 869 131 c 2
 697 -115 l 2
 691 -124 681 -129 670 -129 c 0
 652 -129 636 -114 636 -96 c 0
 636 -89 638 -82 642 -77 c 2
 725 41 l 1
 175 41 l 1
 258 -77 l 2
 262 -82 264 -89 264 -96 c 0
 264 -114 249 -129 231 -129 c 0
 219 -129 209 -124 203 -115 c 2
 31 131 l 2
 25 143 25 143 25 150 c 0
 25 157 27 163 31 169 c 2
 203 415 l 2
 209 424 219 429 231 429 c 0
128 109 m 1
 772 109 l 1
 801 150 l 1
 772 192 l 1
 128 192 l 1
 99 150 l 1
 128 109 l 1
EndSplineSet
Validated: 1
EndChar

StartChar: uni27FB
Encoding: 80 10235 80
Width: 900
Flags: W
HStem: 0 21G<832 850> 116 68<158 808> 280 20G<832 850>
VStem: 808 67<3.48541 116 184 296.515>
LayerCount: 2
Fore
SplineSet
875 34 m 2
 875 16 859 0 841 0 c 0
 823 0 808 16 808 34 c 2
 808 116 l 1
 158 116 l 1
 238 55 l 2
 246 49 251 39 251 28 c 0
 251 10 236 -6 218 -6 c 0
 211 -6 204 -4 197 1 c 2
 38 123 l 2
 30 129 25 139 25 150 c 0
 25 161 30 170 38 177 c 2
 197 299 l 2
 204 304 211 306 218 306 c 0
 236 306 251 290 251 272 c 0
 251 261 246 251 238 245 c 2
 158 184 l 1
 808 184 l 1
 808 266 l 2
 808 284 823 300 841 300 c 0
 859 300 875 284 875 266 c 2
 875 34 l 2
EndSplineSet
Validated: 1
EndChar

StartChar: uni27FC
Encoding: 81 10236 81
Width: 900
Flags: W
HStem: 0 21G<49 67> 116 68<92 742> 280 20G<49 67>
VStem: 25 67<3.48541 116 184 296.515>
LayerCount: 2
Fore
SplineSet
92 34 m 2
 92 16 76 0 58 0 c 0
 40 0 25 16 25 34 c 2
 25 266 l 2
 25 284 40 300 58 300 c 0
 76 300 92 284 92 266 c 2
 92 184 l 1
 742 184 l 1
 721 200 694 220 662 245 c 0
 654 251 649 261 649 272 c 0
 649 290 664 306 682 306 c 0
 689 306 696 304 703 299 c 2
 862 177 l 2
 870 170 875 161 875 150 c 0
 875 139 870 129 862 123 c 2
 703 1 l 2
 696 -4 689 -6 682 -6 c 0
 664 -6 649 10 649 28 c 0
 649 39 654 49 662 55 c 2
 742 116 l 1
 92 116 l 1
 92 34 l 2
EndSplineSet
Validated: 1
EndChar

StartChar: uni27FD
Encoding: 82 10237 82
Width: 900
Flags: W
HStem: 41 68<175 808> 192 66<175 808>
VStem: 808 68<-96.5146 40 108 192 258 397.707>
LayerCount: 2
Fore
SplineSet
231 429 m 0
 249 429 264 414 264 396 c 0
 264 389 262 382 258 377 c 2
 175 258 l 1
 808 258 l 1
 808 368 l 2
 808 386 824 401 842 401 c 0
 860 401 876 386 876 368 c 2
 876 -66 l 2
 876 -84 860 -100 842 -100 c 0
 824 -100 808 -84 808 -66 c 2
 808 40 l 1
 175 41 l 1
 258 -77 l 2
 262 -82 264 -89 264 -96 c 0
 264 -114 249 -129 231 -129 c 0
 219 -129 209 -124 203 -115 c 2
 31 131 l 2
 25 143 25 143 25 150 c 0
 25 157 27 163 31 169 c 2
 203 415 l 2
 209 424 219 429 231 429 c 0
128 109 m 1
 808 108 l 1
 808 192 l 1
 128 192 l 1
 99 150 l 1
 128 109 l 1
EndSplineSet
Validated: 1
EndChar

StartChar: uni27FE
Encoding: 83 10238 83
Width: 900
Flags: W
HStem: 40 68<92 725> 192 66<92 725>
VStem: 25 67<-96.7074 40 108 192 258 396.707>
LayerCount: 2
Fore
SplineSet
25 367 m 2
 25 385 40 400 58 400 c 0
 76 400 92 385 92 367 c 2
 92 258 l 1
 725 258 l 1
 642 377 l 2
 638 382 636 389 636 396 c 0
 636 414 652 429 670 429 c 0
 681 429 691 424 697 415 c 2
 869 169 l 2
 875 157 875 157 875 150 c 0
 875 143 873 137 869 131 c 2
 697 -115 l 2
 691 -124 681 -129 670 -129 c 0
 652 -129 636 -114 636 -96 c 0
 636 -89 638 -82 642 -77 c 2
 725 41 l 1
 92 40 l 1
 92 -67 l 2
 92 -85 76 -100 58 -100 c 0
 40 -100 25 -85 25 -67 c 2
 25 367 l 2
92 108 m 1
 772 109 l 1
 801 150 l 1
 772 192 l 1
 92 192 l 1
 92 108 l 1
EndSplineSet
Validated: 1
EndChar

StartChar: uni2902
Encoding: 84 10498 84
Width: 817
Flags: W
HStem: 42 66<175 376 442 788.876> 192 66<175 376 442 788.876>
VStem: 376 66<-96.8757 42 108 192 258 398.05>
LayerCount: 2
Fore
SplineSet
231 429 m 0
 249 429 264 414 264 396 c 0
 264 389 262 382 258 377 c 2
 175 258 l 1
 376 258 l 1
 376 368 l 2
 376 386 391 401 409 401 c 0
 427 401 442 386 442 368 c 2
 442 258 l 1
 758 258 l 2
 776 258 792 243 792 225 c 0
 792 207 776 192 758 192 c 2
 442 192 l 1
 442 108 l 1
 758 108 l 2
 776 108 792 93 792 75 c 0
 792 57 776 42 758 42 c 2
 442 42 l 1
 442 -66 l 2
 442 -84 427 -100 409 -100 c 0
 391 -100 376 -84 376 -66 c 2
 376 42 l 1
 175 42 l 1
 258 -77 l 2
 262 -82 264 -89 264 -96 c 0
 264 -114 249 -129 231 -129 c 0
 219 -129 209 -124 203 -115 c 2
 31 131 l 2
 25 143 25 143 25 150 c 0
 25 157 27 163 31 169 c 2
 203 415 l 2
 209 424 219 429 231 429 c 0
128 108 m 1
 376 108 l 1
 376 192 l 1
 128 192 l 1
 99 150 l 1
 128 108 l 1
EndSplineSet
Validated: 1
EndChar

StartChar: uni2903
Encoding: 85 10499 85
Width: 817
Flags: W
HStem: 42 66<27.9501 376 442 642> 192 66<27.9501 376 442 642>
VStem: 376 66<-96.8757 42 108 192 258 398.05>
LayerCount: 2
Fore
SplineSet
58 192 m 2
 40 192 25 207 25 225 c 0
 25 243 40 258 58 258 c 2
 376 258 l 1
 376 368 l 2
 376 386 391 401 409 401 c 0
 427 401 442 386 442 368 c 2
 442 258 l 1
 642 258 l 1
 559 377 l 2
 555 382 553 389 553 396 c 0
 553 414 569 429 587 429 c 0
 598 429 608 424 614 415 c 2
 786 169 l 2
 792 157 792 157 792 150 c 0
 792 143 790 137 786 131 c 2
 614 -115 l 2
 608 -124 598 -129 587 -129 c 0
 569 -129 553 -114 553 -96 c 0
 553 -89 555 -82 559 -77 c 2
 642 42 l 1
 442 42 l 1
 442 -66 l 2
 442 -84 427 -100 409 -100 c 0
 391 -100 376 -84 376 -66 c 2
 376 42 l 1
 58 42 l 2
 40 42 25 57 25 75 c 0
 25 93 40 108 58 108 c 2
 376 108 l 1
 376 192 l 1
 58 192 l 2
442 108 m 1
 689 108 l 1
 718 150 l 1
 689 192 l 1
 442 192 l 1
 442 108 l 1
EndSplineSet
Validated: 1
EndChar

StartChar: uni2904
Encoding: 86 10500 86
Width: 817
Flags: W
HStem: 42 66<175 376 442 642> 192 66<175 376 442 642>
VStem: 376 66<-96.8757 42 108 192 258 398.05>
LayerCount: 2
Fore
SplineSet
376 368 m 2
 376 386 391 401 409 401 c 0
 427 401 442 386 442 368 c 2
 442 258 l 1
 642 258 l 1
 559 377 l 2
 555 382 553 389 553 396 c 0
 553 414 569 429 587 429 c 0
 598 429 608 424 614 415 c 2
 786 169 l 2
 792 157 792 157 792 150 c 0
 792 143 790 137 786 131 c 2
 614 -115 l 2
 608 -124 598 -129 587 -129 c 0
 569 -129 553 -114 553 -96 c 0
 553 -89 555 -82 559 -77 c 2
 642 42 l 1
 442 42 l 1
 442 -66 l 2
 442 -84 427 -100 409 -100 c 0
 391 -100 376 -84 376 -66 c 2
 376 42 l 1
 175 42 l 1
 258 -77 l 2
 262 -82 264 -89 264 -96 c 0
 264 -114 249 -129 231 -129 c 0
 219 -129 209 -124 203 -115 c 2
 31 131 l 2
 25 143 25 143 25 150 c 0
 25 157 27 163 31 169 c 2
 203 415 l 2
 209 424 219 429 231 429 c 0
 249 429 264 414 264 396 c 0
 264 389 262 382 258 377 c 2
 175 258 l 1
 376 258 l 1
 376 368 l 2
376 108 m 1
 376 192 l 1
 128 192 l 1
 99 150 l 1
 128 108 l 1
 376 108 l 1
442 108 m 1
 689 108 l 1
 718 150 l 1
 689 192 l 1
 442 192 l 1
 442 108 l 1
EndSplineSet
Validated: 1
EndChar

StartChar: uni2906
Encoding: 87 10502 87
Width: 818
Flags: W
HStem: 42 66<175 726> 192 66<175 726>
VStem: 726 66<-96.8757 42 108 192 258 398.05>
LayerCount: 2
Fore
SplineSet
231 429 m 0
 249 429 264 414 264 396 c 0
 264 389 262 382 258 377 c 2
 175 258 l 1
 726 258 l 1
 726 368 l 2
 726 386 741 401 759 401 c 0
 777 401 792 386 792 368 c 2
 792 -66 l 2
 792 -84 777 -100 759 -100 c 0
 741 -100 726 -84 726 -66 c 2
 726 42 l 1
 175 42 l 1
 258 -77 l 2
 262 -82 264 -89 264 -96 c 0
 264 -114 249 -129 231 -129 c 0
 219 -129 209 -124 203 -115 c 2
 31 131 l 2
 25 143 25 143 25 150 c 0
 25 157 27 163 31 169 c 2
 203 415 l 2
 209 424 219 429 231 429 c 0
128 108 m 1
 726 108 l 1
 726 192 l 1
 128 192 l 1
 99 150 l 1
 128 108 l 1
EndSplineSet
Validated: 1
EndChar

StartChar: uni2907
Encoding: 88 10503 88
Width: 817
Flags: W
HStem: 42 66<92 642> 192 66<92 642>
VStem: 25 67<-96.7074 42 108 192 258 396.707>
LayerCount: 2
Fore
SplineSet
25 367 m 2
 25 385 40 400 58 400 c 0
 76 400 92 385 92 367 c 2
 92 258 l 1
 642 258 l 1
 559 377 l 2
 555 382 553 389 553 396 c 0
 553 414 569 429 587 429 c 0
 598 429 608 424 614 415 c 2
 786 169 l 2
 792 157 792 157 792 150 c 0
 792 143 790 137 786 131 c 2
 614 -115 l 2
 608 -124 598 -129 587 -129 c 0
 569 -129 553 -114 553 -96 c 0
 553 -89 555 -82 559 -77 c 2
 642 42 l 1
 92 42 l 1
 92 -67 l 2
 92 -85 76 -100 58 -100 c 0
 40 -100 25 -85 25 -67 c 2
 25 367 l 2
92 108 m 1
 689 108 l 1
 718 150 l 1
 689 192 l 1
 92 192 l 1
 92 108 l 1
EndSplineSet
Validated: 1
EndChar

StartChar: uni2908
Encoding: 89 10504 89
Width: 361
Flags: W
HStem: -234 21G<175.5 187> 116 68<34.2926 147 215 327.707>
VStem: 147 68<-101 116 184 530.515>
LayerCount: 2
Fore
SplineSet
25 -41 m 0
 25 -23 40 -8 58 -8 c 0
 69 -8 79 -13 85 -21 c 0
 110 -54 131 -81 147 -102 c 1
 147 116 l 1
 64 116 l 2
 46 116 31 132 31 150 c 0
 31 168 46 184 64 184 c 2
 147 184 l 1
 147 500 l 2
 147 518 163 534 181 534 c 0
 199 534 215 518 215 500 c 2
 215 184 l 1
 298 184 l 2
 316 184 331 168 331 150 c 0
 331 132 316 116 298 116 c 2
 215 116 l 1
 215 -101 l 1
 276 -21 l 2
 282 -13 292 -8 303 -8 c 0
 321 -8 336 -23 336 -41 c 0
 336 -48 334 -55 329 -62 c 2
 210 -217 l 2
 203 -228 193 -234 181 -234 c 0
 170 -234 161 -229 154 -221 c 2
 32 -62 l 2
 27 -55 25 -48 25 -41 c 0
EndSplineSet
Validated: 1
EndChar

StartChar: uni2909
Encoding: 90 10505 90
Width: 361
Flags: W
HStem: -234 21G<172 190> 116 68<34.2926 147 215 327.707>
VStem: 147 68<-230.515 116 184 401>
LayerCount: 2
Fore
SplineSet
215 -200 m 2
 215 -218 199 -234 181 -234 c 0
 163 -234 147 -218 147 -200 c 2
 147 116 l 1
 64 116 l 2
 46 116 31 132 31 150 c 0
 31 168 46 184 64 184 c 2
 147 184 l 1
 147 402 l 1
 131 381 110 354 85 321 c 0
 79 313 69 308 58 308 c 0
 40 308 25 323 25 341 c 0
 25 348 27 355 32 362 c 2
 154 521 l 2
 161 529 170 534 181 534 c 0
 193 534 203 528 210 517 c 2
 329 362 l 2
 334 355 336 348 336 341 c 0
 336 323 321 308 303 308 c 0
 292 308 282 313 276 321 c 2
 215 401 l 1
 215 184 l 1
 298 184 l 2
 316 184 331 168 331 150 c 0
 331 132 316 116 298 116 c 2
 215 116 l 1
 215 -200 l 2
EndSplineSet
Validated: 1
EndChar

StartChar: uni2912
Encoding: 91 10514 91
Width: 361
Flags: W
HStem: -234 21G<172 190> 466 68<34.2926 327.707>
VStem: 147 68<-230.515 283>
LayerCount: 2
Fore
SplineSet
215 -200 m 2
 215 -218 199 -234 181 -234 c 0
 163 -234 147 -218 147 -200 c 2
 147 284 l 1
 131 263 110 236 85 203 c 0
 79 195 69 190 58 190 c 0
 40 190 25 205 25 223 c 0
 25 230 27 237 32 244 c 2
 154 403 l 2
 161 411 170 416 181 416 c 0
 193 416 203 410 210 399 c 2
 329 244 l 2
 334 237 336 230 336 223 c 0
 336 205 321 190 303 190 c 0
 292 190 282 195 276 203 c 2
 215 283 l 1
 215 -200 l 2
64 466 m 2
 46 466 31 482 31 500 c 0
 31 518 46 534 64 534 c 2
 298 534 l 2
 316 534 331 518 331 500 c 0
 331 482 316 466 298 466 c 2
 64 466 l 2
EndSplineSet
Validated: 1
EndChar

StartChar: uni2913
Encoding: 92 10515 92
Width: 361
Flags: W
HStem: -234 68<34.2926 327.707>
VStem: 147 68<17 530.515>
LayerCount: 2
Fore
SplineSet
64 -234 m 2
 46 -234 31 -218 31 -200 c 0
 31 -182 46 -166 64 -166 c 2
 298 -166 l 2
 316 -166 331 -182 331 -200 c 0
 331 -218 316 -234 298 -234 c 2
 64 -234 l 2
25 77 m 0
 25 95 40 110 58 110 c 0
 69 110 79 105 85 97 c 0
 110 64 131 37 147 16 c 1
 147 500 l 2
 147 518 163 534 181 534 c 0
 199 534 215 518 215 500 c 2
 215 17 l 1
 276 97 l 2
 282 105 292 110 303 110 c 0
 321 110 336 95 336 77 c 0
 336 70 334 63 329 56 c 2
 210 -99 l 2
 203 -110 193 -116 181 -116 c 0
 170 -116 161 -111 154 -103 c 2
 32 56 l 2
 27 63 25 70 25 77 c 0
EndSplineSet
Validated: 1
EndChar

StartChar: uni2921
Encoding: 93 10529 93
Width: 612
Flags: W
VStem: 51 67<168.176 242.219> 494 66<58.9923 132.308>
LayerCount: 2
Fore
SplineSet
321 -71 m 0
 321 -52 335 -38 355 -38 c 2
 359 -38 l 1
 460 -51 l 1
 105 305 l 1
 118 203 l 2
 118 202 118 201 118 200 c 0
 118 181 103 165 85 165 c 0
 68 165 53 178 51 194 c 2
 25 393 l 2
 25 395 25 396 25 398 c 0
 25 414 41 431 58 431 c 2
 63 431 l 1
 262 404 l 2
 279 402 291 388 291 371 c 0
 291 352 277 338 257 338 c 2
 253 338 l 1
 212 343 178 348 152 351 c 1
 507 -4 l 1
 494 97 l 2
 494 98 494 100 494 101 c 0
 494 120 507 135 527 135 c 0
 544 135 558 123 560 106 c 2
 586 -88 l 2
 587 -91 587 -94 587 -97 c 0
 587 -115 572 -131 553 -131 c 2
 549 -131 l 1
 350 -104 l 2
 333 -102 321 -88 321 -71 c 0
EndSplineSet
Validated: 1
EndChar

StartChar: uni2922
Encoding: 94 10530 94
Width: 612
Flags: W
HStem: -104 66<204.054 288.187> 338 66<323.795 407.946>
LayerCount: 2
Fore
SplineSet
354 338 m 2
 335 338 321 352 321 371 c 0
 321 388 333 402 350 404 c 0
 467 419 549 430 549 431 c 1
 553 431 l 2
 572 431 587 415 587 397 c 0
 587 394 586 391 585 388 c 2
 560 194 l 2
 558 177 544 165 527 165 c 0
 508 165 494 179 494 199 c 0
 494 204 498 234 507 304 c 1
 152 -51 l 1
 253 -38 l 1
 257 -38 l 2
 277 -38 291 -52 291 -71 c 0
 291 -88 279 -102 262 -104 c 0
 145 -119 63 -130 63 -131 c 1
 59 -131 l 2
 40 -131 25 -115 25 -96 c 0
 25 -95 25 -94 25 -93 c 2
 51 106 l 2
 53 122 68 135 85 135 c 0
 103 135 118 120 118 101 c 0
 118 74 114 61 111 48 c 0
 108 35 104 22 104 -5 c 1
 460 351 l 1
 359 338 l 1
 354 338 l 2
EndSplineSet
Validated: 1
EndChar

StartChar: uni2940
Encoding: 95 10560 95
Width: 550
Flags: W
HStem: -100 66<195.901 355.582> 333 67<283 355.464>
VStem: 25 67<69.9541 230.839> 458 67<70.172 229.908>
LayerCount: 2
Fore
SplineSet
92 150 m 0
 92 48 174 -34 276 -34 c 0
 377 -34 458 49 458 150 c 0
 458 248 381 329 283 333 c 1
 363 272 l 2
 371 266 376 256 376 245 c 0
 376 227 361 211 343 211 c 0
 336 211 329 213 322 218 c 2
 195 315 l 1
 132 284 92 220 92 150 c 0
343 523 m 0
 361 523 376 507 376 489 c 0
 376 478 371 468 363 462 c 2
 283 400 l 1
 418 396 525 285 525 150 c 0
 525 12 414 -100 276 -100 c 0
 138 -100 25 12 25 150 c 0
 25 240 72 322 150 367 c 0
 150 378 155 387 163 394 c 2
 322 516 l 2
 329 521 336 523 343 523 c 0
EndSplineSet
Validated: 1
EndChar

StartChar: uni2941
Encoding: 96 10561 96
Width: 550
Flags: W
HStem: -100 66<195.901 355.582> 333 67<195.98 269>
VStem: 25 67<69.9541 230.322> 458 67<70.172 230.617>
LayerCount: 2
Fore
SplineSet
92 150 m 0
 92 48 174 -34 276 -34 c 0
 377 -34 458 49 458 150 c 0
 458 220 418 284 355 315 c 1
 229 218 l 2
 222 213 215 211 208 211 c 0
 190 211 175 227 175 245 c 0
 175 256 180 266 188 272 c 2
 269 333 l 1
 170 329 92 249 92 150 c 0
208 523 m 0
 215 523 222 521 229 516 c 2
 388 394 l 2
 396 387 401 378 401 367 c 0
 478 322 525 239 525 150 c 1
 525 12 414 -100 276 -100 c 0
 138 -100 25 12 25 150 c 0
 25 286 133 396 269 400 c 1
 248 416 221 437 188 462 c 0
 180 468 175 478 175 489 c 0
 175 507 190 523 208 523 c 0
EndSplineSet
Validated: 1
EndChar

StartChar: uni296E
Encoding: 97 10606 97
Width: 511
Flags: W
HStem: -234 21G<171 189 321 335.5>
VStem: 147 67<-230.515 402> 297 67<-102 530.515>
LayerCount: 2
Fore
SplineSet
180 534 m 0
 199 534 214 519 214 500 c 2
 214 -200 l 2
 214 -218 198 -234 180 -234 c 0
 162 -234 147 -218 147 -200 c 2
 147 402 l 1
 85 321 l 2
 78 313 69 308 58 308 c 0
 40 308 25 323 25 342 c 0
 25 350 27 356 32 362 c 2
 154 521 l 2
 161 530 169 534 180 534 c 0
330 -234 m 0
 312 -234 297 -219 297 -200 c 2
 297 500 l 2
 297 518 312 534 330 534 c 0
 348 534 364 518 364 500 c 2
 364 -102 l 1
 426 -21 l 2
 433 -12 441 -8 452 -8 c 0
 471 -8 486 -23 486 -42 c 0
 486 -50 484 -56 479 -62 c 2
 357 -221 l 2
 350 -229 341 -234 330 -234 c 0
EndSplineSet
Validated: 1
EndChar

StartChar: uni296F
Encoding: 98 10607 98
Width: 511
Flags: W
HStem: -234 21G<174.5 189.5 321 339>
VStem: 147 67<-102 530.515> 297 67<-230.515 402>
LayerCount: 2
Fore
SplineSet
486 342 m 0
 486 323 471 308 452 308 c 0
 441 308 433 312 426 321 c 2
 364 402 l 1
 364 -200 l 2
 364 -218 348 -234 330 -234 c 0
 312 -234 297 -218 297 -200 c 2
 297 500 l 2
 297 519 312 534 330 534 c 0
 341 534 350 529 357 521 c 2
 479 362 l 2
 484 356 486 350 486 342 c 0
25 -42 m 0
 25 -23 40 -8 58 -8 c 0
 69 -8 78 -13 85 -21 c 2
 147 -102 l 1
 147 500 l 2
 147 518 162 534 180 534 c 0
 198 534 214 518 214 500 c 2
 214 -200 l 2
 214 -219 199 -234 180 -234 c 0
 169 -234 161 -230 154 -221 c 2
 32 -62 l 2
 27 -56 25 -50 25 -42 c 0
EndSplineSet
Validated: 1
EndChar

StartChar: uni2934
Encoding: 99 10548 99
Width: 672
Flags: W
HStem: -100 66<27.9501 458>
VStem: 458 67<-34 268>
LayerCount: 2
Fore
SplineSet
525 -67 m 2
 525 -85 510 -100 491 -100 c 2
 58 -100 l 2
 40 -100 25 -85 25 -67 c 0
 25 -49 40 -34 58 -34 c 2
 458 -34 l 1
 458 268 l 1
 442 247 421 220 396 187 c 0
 390 179 380 174 369 174 c 0
 351 174 336 189 336 207 c 0
 336 214 338 221 343 228 c 2
 465 387 l 2
 472 395 481 400 492 400 c 0
 503 400 514 395 520 385 c 2
 640 228 l 2
 645 221 647 214 647 207 c 0
 647 189 632 174 614 174 c 0
 603 174 593 179 587 187 c 2
 525 268 l 1
 525 -67 l 2
EndSplineSet
Validated: 1
EndChar

StartChar: uni2935
Encoding: 100 10549 100
Width: 672
Flags: W
HStem: 333 67<28.2926 459>
VStem: 459 67<33 333>
LayerCount: 2
Fore
SplineSet
492 400 m 2
 511 400 526 385 526 366 c 2
 526 33 l 1
 587 113 l 2
 593 121 603 126 614 126 c 0
 632 126 647 111 647 93 c 0
 647 86 645 79 640 72 c 2
 521 -83 l 2
 514 -94 504 -100 492 -100 c 0
 481 -100 472 -95 465 -87 c 2
 343 72 l 2
 338 79 336 86 336 93 c 0
 336 111 351 126 369 126 c 0
 380 126 390 121 396 113 c 0
 422 79 443 52 459 31 c 1
 459 333 l 1
 58 333 l 2
 40 333 25 348 25 366 c 0
 25 384 40 400 58 400 c 2
 492 400 l 2
EndSplineSet
Validated: 1
EndChar

StartChar: uni2936
Encoding: 101 10550 101
Width: 550
Flags: W
HStem: -100 66<157 458>
VStem: 458 67<-34 396.707>
LayerCount: 2
Fore
SplineSet
525 -67 m 2
 525 -85 510 -100 491 -100 c 2
 157 -100 l 1
 238 -162 l 2
 246 -168 251 -178 251 -189 c 0
 251 -207 236 -223 218 -223 c 0
 211 -223 204 -221 197 -216 c 2
 38 -94 l 2
 30 -88 25 -78 25 -67 c 0
 25 -56 30 -47 38 -40 c 2
 197 82 l 2
 204 87 211 89 218 89 c 0
 236 89 251 73 251 55 c 0
 251 44 246 34 238 28 c 2
 157 -34 l 1
 458 -34 l 1
 458 367 l 2
 458 385 474 400 492 400 c 0
 510 400 525 385 525 367 c 2
 525 -67 l 2
EndSplineSet
Validated: 1
EndChar

StartChar: uni2937
Encoding: 102 10551 102
Width: 551
Flags: W
HStem: -100 67<92 393>
VStem: 25 67<-33 396.515>
LayerCount: 2
Fore
SplineSet
58 -100 m 2
 40 -100 25 -85 25 -66 c 2
 25 366 l 2
 25 384 40 400 58 400 c 0
 76 400 92 384 92 366 c 2
 92 -33 l 1
 394 -33 l 1
 373 -17 346 4 313 29 c 0
 305 35 300 45 300 56 c 0
 300 74 315 90 333 90 c 0
 340 90 347 88 354 83 c 2
 513 -39 l 2
 521 -46 526 -55 526 -66 c 0
 526 -77 521 -87 513 -93 c 2
 354 -215 l 2
 347 -220 340 -222 333 -222 c 0
 315 -222 300 -206 300 -188 c 0
 300 -177 305 -167 313 -161 c 2
 393 -100 l 1
 58 -100 l 2
EndSplineSet
Validated: 1
EndChar

StartChar: uni2938
Encoding: 103 10552 103
Width: 335
Flags: W
HStem: 333 67<29.4854 139.116>
VStem: 242 68<68.1198 229.511>
LayerCount: 2
Fore
SplineSet
60 333 m 0
 42 333 26 349 26 367 c 0
 26 385 42 400 60 400 c 0
 199 400 310 288 310 149 c 0
 310 60 263 -23 186 -67 c 1
 261 -87 l 2
 277 -90 286 -105 286 -120 c 0
 286 -133 279 -146 266 -151 c 0
 261 -153 255 -154 244 -152 c 2
 50 -100 l 2
 35 -97 25 -80 25 -65 c 0
 25 -60 26 -55 29 -50 c 2
 129 123 l 2
 137 135 148 140 159 140 c 0
 177 140 193 126 193 107 c 0
 193 101 192 95 188 89 c 2
 124 -22 l 1
 195 4 242 72 242 149 c 0
 242 252 161 333 60 333 c 0
EndSplineSet
Validated: 1
EndChar

StartChar: uni2939
Encoding: 104 10553 104
Width: 335
Flags: W
HStem: -152 65<52.095 97.94> 333 67<194.458 305.515>
VStem: 25 68<69.3627 232.778>
LayerCount: 2
Fore
SplineSet
147 89 m 0
 143 95 142 101 142 107 c 0
 142 126 159 140 177 140 c 0
 188 140 198 135 206 123 c 2
 306 -50 l 2
 309 -55 310 -60 310 -65 c 0
 310 -80 300 -97 285 -100 c 2
 91 -152 l 1
 89 -152 87 -152 85 -152 c 0
 62 -152 48 -134 48 -116 c 0
 48 -103 56 -91 74 -87 c 2
 150 -67 l 1
 72 -22 25 61 25 151 c 0
 25 289 136 400 275 400 c 0
 293 400 309 385 309 367 c 0
 309 349 293 333 275 333 c 0
 173 333 93 253 93 151 c 0
 93 73 140 5 211 -22 c 1
 197 2 176 40 147 89 c 0
EndSplineSet
Validated: 1
EndChar

StartChar: uni293A
Encoding: 105 10554 105
Width: 603
Flags: W
HStem: 224 68<247.741 410.778>
VStem: 26 65<202.617 264.962> 511 67<11.4854 122.542>
LayerCount: 2
Fore
SplineSet
26 226 m 1
 26 228 26 230 26 232 c 0
 26 255 44 269 62 269 c 0
 75 269 87 262 91 244 c 0
 99 214 105 188 111 167 c 1
 156 244 239 292 329 292 c 0
 467 292 578 181 578 42 c 0
 578 24 563 8 545 8 c 0
 527 8 511 24 511 42 c 0
 511 144 431 224 329 224 c 0
 252 224 184 177 157 107 c 1
 267 171 l 2
 273 175 279 176 285 176 c 0
 303 176 317 160 317 143 c 0
 317 132 312 121 300 113 c 0
 201 55 119 7 112 7 c 0
 98 7 82 17 78 33 c 2
 26 226 l 1
EndSplineSet
Validated: 1
EndChar

StartChar: uni293B
Encoding: 106 10555 106
Width: 626
Flags: W
HStem: 8 68<192.222 357.308>
VStem: 25 67<177.458 288.515>
LayerCount: 2
Fore
SplineSet
352 110 m 0
 345 105 338 102 331 102 c 0
 314 102 300 118 300 136 c 0
 300 145 304 155 312 163 c 1
 471 285 l 2
 477 290 485 292 492 292 c 0
 505 292 517 285 522 272 c 2
 599 87 l 1
 600 83 601 79 601 75 c 0
 601 54 584 39 567 39 c 0
 555 39 544 46 537 61 c 2
 500 149 l 1
 458 63 371 8 274 8 c 0
 136 8 25 119 25 258 c 0
 25 276 40 292 58 292 c 0
 76 292 92 276 92 258 c 0
 92 156 172 76 274 76 c 0
 345 76 408 114 439 176 c 1
 418 160 388 138 352 110 c 0
EndSplineSet
Validated: 1
EndChar

StartChar: uni293C
Encoding: 107 10556 107
Width: 602
Flags: W
HStem: 224 68<195.489 356.664>
VStem: 25 67<11.4854 121.116>
LayerCount: 2
Fore
SplineSet
92 42 m 0
 92 24 76 8 58 8 c 0
 40 8 25 24 25 42 c 0
 25 181 137 292 276 292 c 0
 365 292 446 245 491 168 c 1
 511 243 l 2
 514 259 528 267 543 267 c 0
 556 267 569 261 575 247 c 0
 577 242 578 236 576 225 c 0
 546 112 524 32 524 32 c 0
 521 17 506 7 491 7 c 0
 486 7 480 8 475 11 c 2
 302 112 l 2
 290 120 285 131 285 142 c 0
 285 159 299 175 317 175 c 0
 323 175 329 174 335 170 c 0
 385 141 423 119 447 106 c 1
 421 177 353 224 276 224 c 0
 173 224 92 143 92 42 c 0
366 -93 m 0
 250 -99 169 -103 155 -104 c 0
 137 -104 121 -88 121 -70 c 0
 121 -52 135 -38 153 -37 c 0
 269 -31 350 -27 364 -26 c 0
 382 -26 398 -42 398 -60 c 0
 398 -78 384 -92 366 -93 c 0
EndSplineSet
Validated: 1
EndChar

StartChar: uni293D
Encoding: 108 10557 108
Width: 602
Flags: W
HStem: -133 67<214.103 312 380 475.515> 224 68<246.857 409.778>
VStem: 26 65<202.617 264.962> 314 66<-251.876 -136 -67 40.9717> 510 67<11.4854 122.542>
LayerCount: 2
Fore
SplineSet
26 226 m 1
 26 228 26 230 26 232 c 0
 26 255 44 269 62 269 c 0
 75 269 87 262 91 244 c 0
 99 215 105 190 111 169 c 1
 156 246 238 292 328 292 c 0
 466 292 577 181 577 42 c 0
 577 24 562 8 544 8 c 0
 526 8 510 24 510 42 c 0
 510 144 430 224 328 224 c 0
 251 224 183 178 156 107 c 1
 267 171 l 2
 273 175 279 176 285 176 c 0
 303 176 317 160 317 143 c 0
 317 132 312 121 300 113 c 0
 201 55 119 7 112 7 c 0
 98 7 82 17 78 33 c 2
 26 226 l 1
241 -70 m 0
 243 -70 244 -70 246 -70 c 0
 248 -70 248 -69 250 -69 c 2
 312 -69 l 1
 312 11 l 1
 311 11 l 1
 311 29 327 45 345 45 c 0
 363 45 378 30 378 12 c 0
 379 -9 379 -13 379 -67 c 1
 401 -67 l 2
 402 -67 403 -66 404 -66 c 0
 405 -66 407 -66 408 -66 c 2
 424 -66 l 2
 444 -66 444 -66 445 -65 c 0
 463 -65 479 -81 479 -99 c 0
 479 -117 465 -131 447 -132 c 0
 445 -132 444 -132 442 -132 c 0
 440 -132 440 -133 438 -133 c 2
 388 -133 l 2
 387 -133 385 -134 384 -134 c 0
 383 -134 381 -134 380 -134 c 1
 380 -221 l 1
 381 -221 l 1
 381 -239 365 -255 347 -255 c 0
 329 -255 314 -240 314 -222 c 0
 313 -200 313 -195 313 -136 c 1
 299 -137 291 -137 243 -137 c 0
 225 -137 209 -121 209 -103 c 0
 209 -85 223 -71 241 -70 c 0
EndSplineSet
Validated: 1
EndChar

StartChar: uni293E
Encoding: 109 10558 109
Width: 488
Flags: W
HStem: -132 67<152.948 292.949> -9 65<220.496 282.905> 301 67<151.981 294.938>
VStem: 396 67<38.4892 198.8>
LayerCount: 2
Fore
SplineSet
213 301 m 0
 178 301 158 286 137 272 c 0
 116 258 95 244 60 244 c 0
 42 244 26 260 26 278 c 0
 26 290 33 301 46 310 c 0
 97 351 146 368 213 368 c 0
 351 368 463 257 463 119 c 0
 463 -20 351 -132 213 -132 c 0
 193 -132 172 -129 152 -123 c 1
 188 -185 l 2
 192 -191 193 -197 193 -203 c 0
 193 -222 177 -236 159 -236 c 0
 148 -236 137 -231 129 -219 c 0
 70 -118 30 -46 29 -46 c 0
 26 -42 25 -37 25 -32 c 0
 25 -17 35 0 50 4 c 2
 244 56 l 1
 246 56 248 56 250 56 c 0
 273 56 287 38 287 20 c 0
 287 7 279 -5 261 -9 c 0
 202 -25 160 -36 134 -43 c 1
 161 -57 188 -65 213 -65 c 0
 315 -65 396 16 396 119 c 0
 396 221 315 301 213 301 c 0
EndSplineSet
Validated: 1
EndChar

StartChar: uni293F
Encoding: 110 10559 110
Width: 488
Flags: W
HStem: -132 67<195.901 341.422> 301 67<195.489 349.891>
VStem: 25 67<38.0505 197.949>
LayerCount: 2
Fore
SplineSet
399 248 m 1
 366 279 315 301 276 301 c 0
 173 301 92 220 92 118 c 0
 92 16 174 -65 276 -65 c 0
 303 -65 326 -61 348 -53 c 1
 321 -46 281 -35 227 -21 c 0
 211 -18 202 -3 202 12 c 0
 202 25 209 38 222 43 c 0
 227 45 233 46 244 44 c 2
 438 -8 l 2
 453 -12 463 -29 463 -44 c 0
 463 -49 462 -54 459 -58 c 2
 458 -58 418 -130 359 -231 c 0
 351 -243 341 -248 330 -248 c 0
 312 -248 295 -234 295 -215 c 0
 295 -209 296 -203 300 -197 c 2
 342 -125 l 1
 322 -130 299 -132 276 -132 c 0
 138 -132 25 -20 25 118 c 0
 25 256 137 368 276 368 c 0
 343 368 434 324 458 281 c 0
 461 277 462 271 462 264 c 0
 462 246 447 231 429 231 c 0
 417 231 405 237 399 248 c 1
EndSplineSet
Validated: 1
EndChar

StartChar: uni2B00
Encoding: 111 11008 111
Width: 611
Flags: W
HStem: 338 66<323.795 407.946>
LayerCount: 2
Fore
SplineSet
527 165 m 0
 508 165 494 179 494 199 c 0
 494 204 498 234 507 304 c 1
 82 -121 l 2
 75 -128 67 -131 59 -131 c 0
 41 -131 25 -115 25 -97 c 0
 25 -89 28 -81 35 -74 c 2
 460 351 l 1
 359 338 l 1
 354 338 l 2
 335 338 321 352 321 371 c 0
 321 388 333 402 350 404 c 0
 467 419 549 430 549 431 c 1
 553 431 l 2
 572 431 587 415 587 397 c 0
 587 394 586 391 585 388 c 2
 560 194 l 2
 558 177 544 165 527 165 c 0
EndSplineSet
Validated: 1
EndChar

StartChar: uni2B01
Encoding: 112 11009 112
Width: 612
Flags: W
VStem: 51 67<168.176 242.219>
LayerCount: 2
Fore
SplineSet
291 371 m 0
 291 352 277 338 257 338 c 2
 253 338 l 1
 212 343 178 348 152 351 c 1
 577 -74 l 2
 584 -81 587 -89 587 -97 c 0
 587 -115 571 -131 553 -131 c 0
 545 -131 537 -128 530 -121 c 2
 105 305 l 1
 118 203 l 2
 118 202 118 201 118 200 c 0
 118 181 103 165 85 165 c 0
 68 165 53 178 51 194 c 2
 25 393 l 2
 25 395 25 396 25 398 c 0
 25 414 41 431 58 431 c 2
 63 431 l 1
 262 404 l 2
 279 402 291 388 291 371 c 0
EndSplineSet
Validated: 1
EndChar

StartChar: uni2B02
Encoding: 113 11010 113
Width: 611
Flags: W
VStem: 494 66<57.112 132.308>
LayerCount: 2
Fore
SplineSet
321 -71 m 0
 321 -52 335 -38 355 -38 c 2
 359 -38 l 1
 460 -51 l 1
 35 374 l 2
 28 381 25 389 25 397 c 0
 25 415 41 431 59 431 c 0
 67 431 75 428 82 421 c 2
 507 -4 l 1
 494 97 l 2
 494 98 494 100 494 101 c 0
 494 120 507 135 527 135 c 0
 544 135 558 123 560 106 c 2
 585 -88 l 2
 586 -91 587 -94 587 -97 c 0
 587 -115 572 -131 553 -131 c 2
 549 -131 l 1
 350 -104 l 2
 333 -102 321 -88 321 -71 c 0
EndSplineSet
Validated: 1
EndChar

StartChar: uni2B03
Encoding: 114 11011 114
Width: 612
Flags: W
HStem: -104 66<204.054 288.187>
LayerCount: 2
Fore
SplineSet
257 -38 m 2
 277 -38 291 -52 291 -71 c 0
 291 -88 279 -102 262 -104 c 0
 145 -119 63 -130 63 -131 c 1
 59 -131 l 2
 40 -131 25 -115 25 -96 c 0
 25 -95 25 -94 25 -93 c 2
 51 106 l 2
 53 122 68 135 85 135 c 0
 103 135 118 120 118 101 c 0
 118 74 114 61 111 48 c 0
 108 35 104 22 104 -5 c 1
 530 421 l 2
 537 428 545 431 553 431 c 0
 571 431 587 415 587 397 c 0
 587 389 584 381 577 374 c 2
 152 -51 l 1
 253 -38 l 1
 257 -38 l 2
EndSplineSet
Validated: 1
EndChar

StartChar: uni2B04
Encoding: 115 11012 115
Width: 817
Flags: W
HStem: 116 68<158 659>
LayerCount: 2
Fore
SplineSet
218 306 m 0
 236 306 251 290 251 272 c 0
 251 261 246 251 238 245 c 2
 158 184 l 1
 659 184 l 1
 638 200 611 220 579 245 c 0
 571 251 566 261 566 272 c 0
 566 290 581 306 599 306 c 0
 606 306 613 304 620 299 c 2
 779 177 l 2
 787 170 792 161 792 150 c 0
 792 139 787 129 779 123 c 2
 620 1 l 2
 613 -4 606 -6 599 -6 c 0
 581 -6 566 10 566 28 c 0
 566 39 571 49 579 55 c 2
 659 116 l 1
 158 116 l 1
 238 55 l 2
 246 49 251 39 251 28 c 0
 251 10 236 -6 218 -6 c 0
 211 -6 204 -4 197 1 c 2
 38 123 l 2
 30 129 25 139 25 150 c 0
 25 161 30 170 38 177 c 2
 197 299 l 2
 204 304 211 306 218 306 c 0
EndSplineSet
Validated: 1
EndChar

StartChar: uni2B05
Encoding: 116 11013 116
Width: 817
Flags: W
HStem: 116 68<158 788.515>
LayerCount: 2
Fore
SplineSet
218 306 m 0
 236 306 251 290 251 272 c 0
 251 261 246 251 238 245 c 2
 158 184 l 1
 758 184 l 2
 776 184 792 168 792 150 c 0
 792 132 776 116 758 116 c 2
 158 116 l 1
 238 55 l 2
 246 49 251 39 251 28 c 0
 251 10 236 -6 218 -6 c 0
 211 -6 204 -4 197 1 c 2
 38 123 l 2
 30 129 25 139 25 150 c 0
 25 161 30 170 38 177 c 2
 197 299 l 2
 204 304 211 306 218 306 c 0
EndSplineSet
Validated: 1
EndChar

StartChar: uni2B06
Encoding: 117 11014 117
Width: 361
Flags: W
HStem: -234 21G<172 190>
VStem: 147 68<-230.515 401>
LayerCount: 2
Fore
SplineSet
215 -200 m 2
 215 -218 199 -234 181 -234 c 0
 163 -234 147 -218 147 -200 c 2
 147 402 l 1
 131 381 110 354 85 321 c 0
 79 313 69 308 58 308 c 0
 40 308 25 323 25 341 c 0
 25 348 27 355 32 362 c 2
 154 521 l 2
 161 529 170 534 181 534 c 0
 193 534 203 528 210 517 c 2
 329 362 l 2
 334 355 336 348 336 341 c 0
 336 323 321 308 303 308 c 0
 292 308 282 313 276 321 c 2
 215 401 l 1
 215 -200 l 2
EndSplineSet
Validated: 1
EndChar

StartChar: uni2B07
Encoding: 118 11015 118
Width: 361
Flags: W
HStem: -234 21G<175.5 187>
VStem: 147 68<-101 530.515>
LayerCount: 2
Fore
SplineSet
25 -41 m 0
 25 -23 40 -8 58 -8 c 0
 69 -8 79 -13 85 -21 c 0
 110 -54 131 -81 147 -102 c 1
 147 500 l 2
 147 518 163 534 181 534 c 0
 199 534 215 518 215 500 c 2
 215 -101 l 1
 276 -21 l 2
 282 -13 292 -8 303 -8 c 0
 321 -8 336 -23 336 -41 c 0
 336 -48 334 -55 329 -62 c 2
 210 -217 l 2
 203 -228 193 -234 181 -234 c 0
 170 -234 161 -229 154 -221 c 2
 32 -62 l 2
 27 -55 25 -48 25 -41 c 0
EndSplineSet
Validated: 1
EndChar

StartChar: uni2B08
Encoding: 119 11016 119
Width: 611
Flags: W
HStem: 338 66<323.795 407.946>
LayerCount: 2
Fore
SplineSet
527 165 m 0
 508 165 494 179 494 199 c 0
 494 204 498 234 507 304 c 1
 82 -121 l 2
 75 -128 67 -131 59 -131 c 0
 41 -131 25 -115 25 -97 c 0
 25 -89 28 -81 35 -74 c 2
 460 351 l 1
 359 338 l 1
 354 338 l 2
 335 338 321 352 321 371 c 0
 321 388 333 402 350 404 c 0
 467 419 549 430 549 431 c 1
 553 431 l 2
 572 431 587 415 587 397 c 0
 587 394 586 391 585 388 c 2
 560 194 l 2
 558 177 544 165 527 165 c 0
EndSplineSet
Validated: 1
EndChar

StartChar: uni2B09
Encoding: 120 11017 120
Width: 612
Flags: W
VStem: 51 67<168.176 242.219>
LayerCount: 2
Fore
SplineSet
291 371 m 0
 291 352 277 338 257 338 c 2
 253 338 l 1
 212 343 178 348 152 351 c 1
 577 -74 l 2
 584 -81 587 -89 587 -97 c 0
 587 -115 571 -131 553 -131 c 0
 545 -131 537 -128 530 -121 c 2
 105 305 l 1
 118 203 l 2
 118 202 118 201 118 200 c 0
 118 181 103 165 85 165 c 0
 68 165 53 178 51 194 c 2
 25 393 l 2
 25 395 25 396 25 398 c 0
 25 414 41 431 58 431 c 2
 63 431 l 1
 262 404 l 2
 279 402 291 388 291 371 c 0
EndSplineSet
Validated: 1
EndChar

StartChar: uni2B0A
Encoding: 121 11018 121
Width: 611
Flags: W
VStem: 494 66<57.112 132.308>
LayerCount: 2
Fore
SplineSet
321 -71 m 0
 321 -52 335 -38 355 -38 c 2
 359 -38 l 1
 460 -51 l 1
 35 374 l 2
 28 381 25 389 25 397 c 0
 25 415 41 431 59 431 c 0
 67 431 75 428 82 421 c 2
 507 -4 l 1
 494 97 l 2
 494 98 494 100 494 101 c 0
 494 120 507 135 527 135 c 0
 544 135 558 123 560 106 c 2
 585 -88 l 2
 586 -91 587 -94 587 -97 c 0
 587 -115 572 -131 553 -131 c 2
 549 -131 l 1
 350 -104 l 2
 333 -102 321 -88 321 -71 c 0
EndSplineSet
Validated: 1
EndChar

StartChar: uni2B0B
Encoding: 122 11019 122
Width: 612
Flags: W
HStem: -104 66<204.054 288.187>
LayerCount: 2
Fore
SplineSet
257 -38 m 2
 277 -38 291 -52 291 -71 c 0
 291 -88 279 -102 262 -104 c 0
 145 -119 63 -130 63 -131 c 1
 59 -131 l 2
 40 -131 25 -115 25 -96 c 0
 25 -95 25 -94 25 -93 c 2
 51 106 l 2
 53 122 68 135 85 135 c 0
 103 135 118 120 118 101 c 0
 118 74 114 61 111 48 c 0
 108 35 104 22 104 -5 c 1
 530 421 l 2
 537 428 545 431 553 431 c 0
 571 431 587 415 587 397 c 0
 587 389 584 381 577 374 c 2
 152 -51 l 1
 253 -38 l 1
 257 -38 l 2
EndSplineSet
Validated: 1
EndChar

StartChar: uni2B0C
Encoding: 123 11020 123
Width: 817
Flags: W
HStem: 116 68<158 659>
LayerCount: 2
Fore
SplineSet
218 306 m 0
 236 306 251 290 251 272 c 0
 251 261 246 251 238 245 c 2
 158 184 l 1
 659 184 l 1
 638 200 611 220 579 245 c 0
 571 251 566 261 566 272 c 0
 566 290 581 306 599 306 c 0
 606 306 613 304 620 299 c 2
 779 177 l 2
 787 170 792 161 792 150 c 0
 792 139 787 129 779 123 c 2
 620 1 l 2
 613 -4 606 -6 599 -6 c 0
 581 -6 566 10 566 28 c 0
 566 39 571 49 579 55 c 2
 659 116 l 1
 158 116 l 1
 238 55 l 2
 246 49 251 39 251 28 c 0
 251 10 236 -6 218 -6 c 0
 211 -6 204 -4 197 1 c 2
 38 123 l 2
 30 129 25 139 25 150 c 0
 25 161 30 170 38 177 c 2
 197 299 l 2
 204 304 211 306 218 306 c 0
EndSplineSet
Validated: 1
EndChar

StartChar: uni2B0D
Encoding: 124 11021 124
Width: 361
Flags: W
HStem: -234 21G<175.5 187>
VStem: 147 68<-101 401>
LayerCount: 2
Fore
SplineSet
25 341 m 0
 25 348 27 355 32 362 c 2
 154 521 l 2
 161 529 170 534 181 534 c 0
 193 534 203 528 210 517 c 2
 329 362 l 2
 334 355 336 348 336 341 c 0
 336 323 321 308 303 308 c 0
 292 308 282 313 276 321 c 2
 215 401 l 1
 215 -101 l 1
 276 -21 l 2
 282 -13 292 -8 303 -8 c 0
 321 -8 336 -23 336 -41 c 0
 336 -48 334 -55 329 -62 c 2
 210 -217 l 2
 203 -228 193 -234 181 -234 c 0
 170 -234 161 -229 154 -221 c 2
 32 -62 l 2
 27 -55 25 -48 25 -41 c 0
 25 -23 40 -8 58 -8 c 0
 69 -8 79 -13 85 -21 c 0
 110 -54 131 -81 147 -102 c 1
 147 402 l 1
 131 381 110 354 85 321 c 0
 79 313 69 308 58 308 c 0
 40 308 25 323 25 341 c 0
EndSplineSet
Validated: 1
EndChar

StartChar: uni2B0E
Encoding: 125 11022 125
Width: 672
Flags: W
HStem: 333 67<28.2926 459>
VStem: 459 67<33 333>
LayerCount: 2
Fore
SplineSet
492 400 m 2
 511 400 526 385 526 366 c 2
 526 33 l 1
 587 113 l 2
 593 121 603 126 614 126 c 0
 632 126 647 111 647 93 c 0
 647 86 645 79 640 72 c 2
 521 -83 l 2
 514 -94 504 -100 492 -100 c 0
 481 -100 472 -95 465 -87 c 2
 343 72 l 2
 338 79 336 86 336 93 c 0
 336 111 351 126 369 126 c 0
 380 126 390 121 396 113 c 0
 422 79 443 52 459 31 c 1
 459 333 l 1
 58 333 l 2
 40 333 25 348 25 366 c 0
 25 384 40 400 58 400 c 2
 492 400 l 2
EndSplineSet
Validated: 1
EndChar

StartChar: uni2B0F
Encoding: 126 11023 126
Width: 672
Flags: W
HStem: -100 66<27.9501 458>
VStem: 458 67<-34 268>
LayerCount: 2
Fore
SplineSet
525 -67 m 2
 525 -85 510 -100 491 -100 c 2
 58 -100 l 2
 40 -100 25 -85 25 -67 c 0
 25 -49 40 -34 58 -34 c 2
 458 -34 l 1
 458 268 l 1
 442 247 421 220 396 187 c 0
 390 179 380 174 369 174 c 0
 351 174 336 189 336 207 c 0
 336 214 338 221 343 228 c 2
 465 387 l 2
 472 395 481 400 492 400 c 0
 503 400 514 395 520 385 c 2
 640 228 l 2
 645 221 647 214 647 207 c 0
 647 189 632 174 614 174 c 0
 603 174 593 179 587 187 c 2
 525 268 l 1
 525 -67 l 2
EndSplineSet
Validated: 1
EndChar

StartChar: uni2B10
Encoding: 127 11024 127
Width: 673
Flags: W
HStem: 334 66<215 645.05>
VStem: 148 67<33 334>
LayerCount: 2
Fore
SplineSet
148 367 m 2
 148 385 163 400 182 400 c 2
 615 400 l 2
 633 400 648 385 648 367 c 0
 648 349 633 334 615 334 c 2
 215 334 l 1
 215 33 l 1
 276 113 l 2
 282 121 292 126 303 126 c 0
 321 126 336 111 336 93 c 0
 336 86 334 79 329 72 c 2
 212 -81 l 2
 206 -93 194 -100 181 -100 c 0
 170 -100 161 -95 154 -87 c 2
 32 72 l 2
 27 79 25 86 25 93 c 0
 25 111 40 126 58 126 c 0
 69 126 79 121 85 113 c 0
 111 79 132 52 148 31 c 1
 148 367 l 2
EndSplineSet
Validated: 1
EndChar

StartChar: uni2B11
Encoding: 128 11025 128
Width: 674
Flags: W
HStem: -100 67<215 645.515>
VStem: 148 67<-33 267>
LayerCount: 2
Fore
SplineSet
181 -100 m 2
 163 -100 148 -85 148 -66 c 2
 148 269 l 1
 132 248 111 221 85 187 c 0
 79 179 69 174 58 174 c 0
 40 174 25 189 25 207 c 0
 25 214 27 221 32 228 c 2
 154 387 l 2
 161 395 170 400 181 400 c 0
 193 400 203 394 210 383 c 2
 329 228 l 2
 334 221 336 214 336 207 c 0
 336 189 321 174 303 174 c 0
 292 174 282 179 276 187 c 2
 215 267 l 1
 215 -33 l 1
 615 -33 l 2
 633 -33 649 -48 649 -66 c 0
 649 -84 633 -100 615 -100 c 2
 181 -100 l 2
EndSplineSet
Validated: 1
EndChar

StartChar: uni2B60
Encoding: 129 11104 129
Width: 817
Flags: W
HStem: 116 68<158 788.515>
LayerCount: 2
Fore
SplineSet
218 306 m 0
 236 306 251 290 251 272 c 0
 251 261 246 251 238 245 c 2
 158 184 l 1
 758 184 l 2
 776 184 792 168 792 150 c 0
 792 132 776 116 758 116 c 2
 158 116 l 1
 238 55 l 2
 246 49 251 39 251 28 c 0
 251 10 236 -6 218 -6 c 0
 211 -6 204 -4 197 1 c 2
 38 123 l 2
 30 129 25 139 25 150 c 0
 25 161 30 170 38 177 c 2
 197 299 l 2
 204 304 211 306 218 306 c 0
EndSplineSet
Validated: 1
EndChar

StartChar: uni2B61
Encoding: 130 11105 130
Width: 361
Flags: W
HStem: -234 21G<172 190>
VStem: 147 68<-230.515 401>
LayerCount: 2
Fore
SplineSet
215 -200 m 2
 215 -218 199 -234 181 -234 c 0
 163 -234 147 -218 147 -200 c 2
 147 402 l 1
 131 381 110 354 85 321 c 0
 79 313 69 308 58 308 c 0
 40 308 25 323 25 341 c 0
 25 348 27 355 32 362 c 2
 154 521 l 2
 161 529 170 534 181 534 c 0
 193 534 203 528 210 517 c 2
 329 362 l 2
 334 355 336 348 336 341 c 0
 336 323 321 308 303 308 c 0
 292 308 282 313 276 321 c 2
 215 401 l 1
 215 -200 l 2
EndSplineSet
Validated: 1
EndChar

StartChar: uni2B62
Encoding: 131 11106 131
Width: 817
Flags: W
HStem: 116 68<28.2926 659>
LayerCount: 2
Fore
SplineSet
58 116 m 2
 40 116 25 132 25 150 c 0
 25 168 40 184 58 184 c 2
 659 184 l 1
 638 200 611 220 579 245 c 0
 571 251 566 261 566 272 c 0
 566 290 581 306 599 306 c 0
 606 306 613 304 620 299 c 2
 779 177 l 2
 787 170 792 161 792 150 c 0
 792 139 787 129 779 123 c 2
 620 1 l 2
 613 -4 606 -6 599 -6 c 0
 581 -6 566 10 566 28 c 0
 566 39 571 49 579 55 c 2
 659 116 l 1
 58 116 l 2
EndSplineSet
Validated: 1
EndChar

StartChar: uni2B63
Encoding: 132 11107 132
Width: 361
Flags: W
HStem: -234 21G<175.5 187>
VStem: 147 68<-101 530.515>
LayerCount: 2
Fore
SplineSet
25 -41 m 0
 25 -23 40 -8 58 -8 c 0
 69 -8 79 -13 85 -21 c 0
 110 -54 131 -81 147 -102 c 1
 147 500 l 2
 147 518 163 534 181 534 c 0
 199 534 215 518 215 500 c 2
 215 -101 l 1
 276 -21 l 2
 282 -13 292 -8 303 -8 c 0
 321 -8 336 -23 336 -41 c 0
 336 -48 334 -55 329 -62 c 2
 210 -217 l 2
 203 -228 193 -234 181 -234 c 0
 170 -234 161 -229 154 -221 c 2
 32 -62 l 2
 27 -55 25 -48 25 -41 c 0
EndSplineSet
Validated: 1
EndChar

StartChar: uni2B64
Encoding: 133 11108 133
Width: 817
Flags: W
HStem: 116 68<158 659>
LayerCount: 2
Fore
SplineSet
218 306 m 0
 236 306 251 290 251 272 c 0
 251 261 246 251 238 245 c 2
 158 184 l 1
 659 184 l 1
 638 200 611 220 579 245 c 0
 571 251 566 261 566 272 c 0
 566 290 581 306 599 306 c 0
 606 306 613 304 620 299 c 2
 779 177 l 2
 787 170 792 161 792 150 c 0
 792 139 787 129 779 123 c 2
 620 1 l 2
 613 -4 606 -6 599 -6 c 0
 581 -6 566 10 566 28 c 0
 566 39 571 49 579 55 c 2
 659 116 l 1
 158 116 l 1
 238 55 l 2
 246 49 251 39 251 28 c 0
 251 10 236 -6 218 -6 c 0
 211 -6 204 -4 197 1 c 2
 38 123 l 2
 30 129 25 139 25 150 c 0
 25 161 30 170 38 177 c 2
 197 299 l 2
 204 304 211 306 218 306 c 0
EndSplineSet
Validated: 1
EndChar

StartChar: uni2B65
Encoding: 134 11109 134
Width: 361
Flags: W
HStem: -234 21G<175.5 187>
VStem: 147 68<-101 401>
LayerCount: 2
Fore
SplineSet
25 341 m 0
 25 348 27 355 32 362 c 2
 154 521 l 2
 161 529 170 534 181 534 c 0
 193 534 203 528 210 517 c 2
 329 362 l 2
 334 355 336 348 336 341 c 0
 336 323 321 308 303 308 c 0
 292 308 282 313 276 321 c 2
 215 401 l 1
 215 -101 l 1
 276 -21 l 2
 282 -13 292 -8 303 -8 c 0
 321 -8 336 -23 336 -41 c 0
 336 -48 334 -55 329 -62 c 2
 210 -217 l 2
 203 -228 193 -234 181 -234 c 0
 170 -234 161 -229 154 -221 c 2
 32 -62 l 2
 27 -55 25 -48 25 -41 c 0
 25 -23 40 -8 58 -8 c 0
 69 -8 79 -13 85 -21 c 0
 110 -54 131 -81 147 -102 c 1
 147 402 l 1
 131 381 110 354 85 321 c 0
 79 313 69 308 58 308 c 0
 40 308 25 323 25 341 c 0
EndSplineSet
Validated: 1
EndChar

StartChar: uni2B66
Encoding: 135 11110 135
Width: 612
Flags: W
VStem: 51 67<168.176 242.219>
LayerCount: 2
Fore
SplineSet
291 371 m 0
 291 352 277 338 257 338 c 2
 253 338 l 1
 212 343 178 348 152 351 c 1
 577 -74 l 2
 584 -81 587 -89 587 -97 c 0
 587 -115 571 -131 553 -131 c 0
 545 -131 537 -128 530 -121 c 2
 105 305 l 1
 118 203 l 2
 118 202 118 201 118 200 c 0
 118 181 103 165 85 165 c 0
 68 165 53 178 51 194 c 2
 25 393 l 2
 25 395 25 396 25 398 c 0
 25 414 41 431 58 431 c 2
 63 431 l 1
 262 404 l 2
 279 402 291 388 291 371 c 0
EndSplineSet
Validated: 1
EndChar

StartChar: uni2B67
Encoding: 136 11111 136
Width: 611
Flags: W
HStem: 338 66<323.795 407.946>
LayerCount: 2
Fore
SplineSet
527 165 m 0
 508 165 494 179 494 199 c 0
 494 204 498 234 507 304 c 1
 82 -121 l 2
 75 -128 67 -131 59 -131 c 0
 41 -131 25 -115 25 -97 c 0
 25 -89 28 -81 35 -74 c 2
 460 351 l 1
 359 338 l 1
 354 338 l 2
 335 338 321 352 321 371 c 0
 321 388 333 402 350 404 c 0
 467 419 549 430 549 431 c 1
 553 431 l 2
 572 431 587 415 587 397 c 0
 587 394 586 391 585 388 c 2
 560 194 l 2
 558 177 544 165 527 165 c 0
EndSplineSet
Validated: 1
EndChar

StartChar: uni2B68
Encoding: 137 11112 137
Width: 611
Flags: W
VStem: 494 66<57.112 132.308>
LayerCount: 2
Fore
SplineSet
321 -71 m 0
 321 -52 335 -38 355 -38 c 2
 359 -38 l 1
 460 -51 l 1
 35 374 l 2
 28 381 25 389 25 397 c 0
 25 415 41 431 59 431 c 0
 67 431 75 428 82 421 c 2
 507 -4 l 1
 494 97 l 2
 494 98 494 100 494 101 c 0
 494 120 507 135 527 135 c 0
 544 135 558 123 560 106 c 2
 585 -88 l 2
 586 -91 587 -94 587 -97 c 0
 587 -115 572 -131 553 -131 c 2
 549 -131 l 1
 350 -104 l 2
 333 -102 321 -88 321 -71 c 0
EndSplineSet
Validated: 1
EndChar

StartChar: uni2B69
Encoding: 138 11113 138
Width: 612
Flags: W
HStem: -104 66<204.054 288.187>
LayerCount: 2
Fore
SplineSet
257 -38 m 2
 277 -38 291 -52 291 -71 c 0
 291 -88 279 -102 262 -104 c 0
 145 -119 63 -130 63 -131 c 1
 59 -131 l 2
 40 -131 25 -115 25 -96 c 0
 25 -95 25 -94 25 -93 c 2
 51 106 l 2
 53 122 68 135 85 135 c 0
 103 135 118 120 118 101 c 0
 118 74 114 61 111 48 c 0
 108 35 104 22 104 -5 c 1
 530 421 l 2
 537 428 545 431 553 431 c 0
 571 431 587 415 587 397 c 0
 587 389 584 381 577 374 c 2
 152 -51 l 1
 253 -38 l 1
 257 -38 l 2
EndSplineSet
Validated: 1
EndChar

StartChar: uni2B6E
Encoding: 139 11118 139
Width: 638
Flags: W
HStem: -100 66<283.489 443.582>
VStem: 113 67<69.7362 184.193> 546 67<69.7362 213.057>
LayerCount: 2
Fore
SplineSet
546 150 m 0
 546 184 532 205 518 226 c 0
 504 247 489 269 489 303 c 0
 489 321 504 336 522 336 c 0
 535 336 546 329 555 316 c 0
 597 264 613 217 613 150 c 0
 613 12 502 -100 364 -100 c 0
 225 -100 113 12 113 150 c 0
 113 162 114 173 116 185 c 1
 78 156 69 149 60 149 c 0
 57 149 53 150 49 151 c 0
 33 156 25 168 25 181 c 0
 25 190 29 200 38 209 c 1
 197 331 l 2
 203 336 211 338 218 338 c 0
 231 338 243 331 248 318 c 2
 325 133 l 1
 326 129 327 125 327 121 c 0
 327 100 310 85 293 85 c 0
 281 85 270 92 263 107 c 2
 208 239 l 1
 190 209 180 178 180 150 c 0
 180 47 261 -34 364 -34 c 0
 465 -34 546 47 546 150 c 0
EndSplineSet
Validated: 1
EndChar

StartChar: uni2B6F
Encoding: 140 11119 140
Width: 652
Flags: W
HStem: -100 66<195.489 355.582>
VStem: 25 67<69.7362 200.416> 325 64<87.7306 151.918> 458 67<69.7362 194.621>
LayerCount: 2
Fore
SplineSet
25 150 m 0
 25 229 85 337 129 337 c 0
 147 337 162 321 162 303 c 0
 162 291 156 281 145 274 c 0
 145 257 131 235 118 212 c 0
 105 189 92 167 92 150 c 0
 92 47 173 -34 276 -34 c 0
 377 -34 458 47 458 150 c 0
 458 181 453 208 442 232 c 1
 432 208 414 165 389 106 c 0
 382 91 371 84 359 84 c 0
 342 84 325 99 325 120 c 0
 325 124 326 128 327 132 c 1
 404 317 l 2
 409 330 421 337 434 337 c 0
 441 337 449 335 455 330 c 2
 614 208 l 1
 622 200 626 190 626 181 c 0
 626 163 612 147 595 147 c 0
 588 147 581 150 574 155 c 2
 522 195 l 1
 524 181 525 166 525 150 c 0
 525 12 414 -100 276 -100 c 0
 137 -100 25 12 25 150 c 0
EndSplineSet
Validated: 1
EndChar

StartChar: uni2B70
Encoding: 141 11120 141
Width: 817
Flags: W
HStem: 0 21G<49 67> 116 68<275 788.515> 280 20G<49 67>
VStem: 25 67<3.48541 296.515>
LayerCount: 2
Fore
SplineSet
92 34 m 2
 92 16 76 0 58 0 c 0
 40 0 25 16 25 34 c 2
 25 266 l 2
 25 284 40 300 58 300 c 0
 76 300 92 284 92 266 c 2
 92 34 l 2
335 306 m 0
 353 306 368 290 368 272 c 0
 368 261 363 251 355 245 c 2
 275 184 l 1
 758 184 l 2
 776 184 792 168 792 150 c 0
 792 132 776 116 758 116 c 2
 275 116 l 1
 355 55 l 2
 363 49 368 39 368 28 c 0
 368 10 353 -6 335 -6 c 0
 328 -6 321 -4 314 1 c 2
 155 123 l 2
 147 129 142 139 142 150 c 0
 142 161 147 170 155 177 c 2
 314 299 l 2
 321 304 328 306 335 306 c 0
EndSplineSet
Validated: 1
EndChar

StartChar: uni2B71
Encoding: 142 11121 142
Width: 361
Flags: W
HStem: -234 21G<172 190> 466 68<34.2926 327.707>
VStem: 147 68<-230.515 283>
LayerCount: 2
Fore
SplineSet
64 466 m 2
 46 466 31 482 31 500 c 0
 31 518 46 534 64 534 c 2
 298 534 l 2
 316 534 331 518 331 500 c 0
 331 482 316 466 298 466 c 2
 64 466 l 2
215 -200 m 2
 215 -218 199 -234 181 -234 c 0
 163 -234 147 -218 147 -200 c 2
 147 284 l 1
 131 263 110 236 85 203 c 0
 79 195 69 190 58 190 c 0
 40 190 25 205 25 223 c 0
 25 230 27 237 32 244 c 2
 154 403 l 2
 161 411 170 416 181 416 c 0
 193 416 203 410 210 399 c 2
 329 244 l 2
 334 237 336 230 336 223 c 0
 336 205 321 190 303 190 c 0
 292 190 282 195 276 203 c 2
 215 283 l 1
 215 -200 l 2
EndSplineSet
Validated: 1
EndChar

StartChar: uni2B72
Encoding: 143 11122 143
Width: 817
Flags: W
HStem: 0 21G<749 767> 116 68<28.2926 542> 280 20G<749 767>
VStem: 725 67<3.48541 296.515>
LayerCount: 2
Fore
SplineSet
58 116 m 2
 40 116 25 132 25 150 c 0
 25 168 40 184 58 184 c 2
 542 184 l 1
 521 200 494 220 462 245 c 0
 454 251 449 261 449 272 c 0
 449 290 464 306 482 306 c 0
 489 306 496 304 503 299 c 2
 662 177 l 2
 670 170 675 161 675 150 c 0
 675 139 670 129 662 123 c 2
 503 1 l 2
 496 -4 489 -6 482 -6 c 0
 464 -6 449 10 449 28 c 0
 449 39 454 49 462 55 c 2
 542 116 l 1
 58 116 l 2
792 34 m 2
 792 16 776 0 758 0 c 0
 740 0 725 16 725 34 c 2
 725 266 l 2
 725 284 740 300 758 300 c 0
 776 300 792 284 792 266 c 2
 792 34 l 2
EndSplineSet
Validated: 1
EndChar

StartChar: uni2B73
Encoding: 144 11123 144
Width: 361
Flags: W
HStem: -234 68<34.2926 327.707>
VStem: 147 68<17 530.515>
LayerCount: 2
Fore
SplineSet
25 77 m 0
 25 95 40 110 58 110 c 0
 69 110 79 105 85 97 c 0
 110 64 131 37 147 16 c 1
 147 500 l 2
 147 518 163 534 181 534 c 0
 199 534 215 518 215 500 c 2
 215 17 l 1
 276 97 l 2
 282 105 292 110 303 110 c 0
 321 110 336 95 336 77 c 0
 336 70 334 63 329 56 c 2
 210 -99 l 2
 203 -110 193 -116 181 -116 c 0
 170 -116 161 -111 154 -103 c 2
 32 56 l 2
 27 63 25 70 25 77 c 0
64 -234 m 2
 46 -234 31 -218 31 -200 c 0
 31 -182 46 -166 64 -166 c 2
 298 -166 l 2
 316 -166 331 -182 331 -200 c 0
 331 -218 316 -234 298 -234 c 2
 64 -234 l 2
EndSplineSet
Validated: 1
EndChar

StartChar: uni2B80
Encoding: 145 11136 145
Width: 817
Flags: W
HStem: -8 66<27.9501 660> 242 66<157 788.876>
LayerCount: 2
Fore
SplineSet
58 -8 m 2
 40 -8 25 7 25 25 c 0
 25 43 40 58 58 58 c 2
 660 58 l 1
 639 74 612 95 579 120 c 0
 571 126 566 136 566 147 c 0
 566 165 581 181 599 181 c 0
 606 181 613 179 620 174 c 2
 779 52 l 2
 787 45 792 36 792 25 c 0
 792 14 787 4 779 -2 c 2
 620 -124 l 2
 613 -129 606 -131 599 -131 c 0
 581 -131 566 -115 566 -97 c 0
 566 -86 571 -76 579 -70 c 2
 661 -8 l 1
 58 -8 l 2
218 431 m 0
 236 431 251 415 251 397 c 0
 251 386 246 376 238 370 c 2
 157 308 l 1
 758 308 l 2
 776 308 792 293 792 275 c 0
 792 257 776 242 758 242 c 2
 157 242 l 1
 238 180 l 2
 246 174 251 164 251 153 c 0
 251 135 236 119 218 119 c 0
 211 119 204 121 197 126 c 2
 38 248 l 2
 30 254 25 264 25 275 c 0
 25 286 30 295 38 302 c 2
 197 424 l 2
 204 429 211 431 218 431 c 0
EndSplineSet
Validated: 1
EndChar

StartChar: uni2B81
Encoding: 146 11137 146
Width: 611
Flags: W
HStem: -234 21G<172 190 425.5 437>
VStem: 148 67<-230.515 401> 398 67<-101 530.515>
LayerCount: 2
Fore
SplineSet
215 -200 m 2
 215 -218 199 -234 181 -234 c 0
 163 -234 148 -218 148 -200 c 2
 148 403 l 1
 132 382 111 355 85 321 c 0
 79 313 69 308 58 308 c 0
 40 308 25 323 25 341 c 0
 25 348 27 355 32 362 c 2
 154 521 l 2
 161 529 170 534 181 534 c 0
 193 534 203 528 210 517 c 2
 329 362 l 2
 334 355 336 348 336 341 c 0
 336 323 321 308 303 308 c 0
 292 308 282 313 276 321 c 2
 215 401 l 1
 215 -200 l 2
275 -41 m 0
 275 -23 290 -8 308 -8 c 0
 319 -8 329 -13 335 -21 c 0
 361 -55 382 -82 398 -103 c 1
 398 500 l 2
 398 518 413 534 431 534 c 0
 449 534 465 518 465 500 c 2
 465 -101 l 1
 526 -21 l 2
 532 -13 542 -8 553 -8 c 0
 571 -8 586 -23 586 -41 c 0
 586 -48 584 -55 579 -62 c 2
 460 -217 l 2
 453 -228 443 -234 431 -234 c 0
 420 -234 411 -229 404 -221 c 2
 282 -62 l 2
 277 -55 275 -48 275 -41 c 0
EndSplineSet
Validated: 1
EndChar

StartChar: uni2B82
Encoding: 147 11138 147
Width: 817
Flags: W
HStem: -8 66<157 788.876> 242 66<27.9501 660>
LayerCount: 2
Fore
SplineSet
58 242 m 2
 40 242 25 257 25 275 c 0
 25 293 40 308 58 308 c 2
 660 308 l 1
 639 324 612 345 579 370 c 0
 571 376 566 386 566 397 c 0
 566 415 581 431 599 431 c 0
 606 431 613 429 620 424 c 2
 779 302 l 2
 787 295 792 286 792 275 c 0
 792 264 787 254 779 248 c 2
 620 126 l 2
 613 121 606 119 599 119 c 0
 581 119 566 135 566 153 c 0
 566 164 571 174 579 180 c 2
 661 242 l 1
 58 242 l 2
218 181 m 0
 236 181 251 165 251 147 c 0
 251 136 246 126 238 120 c 2
 157 58 l 1
 758 58 l 2
 776 58 792 43 792 25 c 0
 792 7 776 -8 758 -8 c 2
 157 -8 l 1
 238 -70 l 2
 246 -76 251 -86 251 -97 c 0
 251 -115 236 -131 218 -131 c 0
 211 -131 204 -129 197 -124 c 2
 38 -2 l 2
 30 4 25 14 25 25 c 0
 25 36 30 45 38 52 c 2
 197 174 l 2
 204 179 211 181 218 181 c 0
EndSplineSet
Validated: 1
EndChar

StartChar: uni2B83
Encoding: 148 11139 148
Width: 611
Flags: W
HStem: -234 21G<175.5 187 422 440>
VStem: 148 67<-101 530.515> 398 67<-230.515 401>
LayerCount: 2
Fore
SplineSet
465 -200 m 2
 465 -218 449 -234 431 -234 c 0
 413 -234 398 -218 398 -200 c 2
 398 403 l 1
 382 382 361 355 335 321 c 0
 329 313 319 308 308 308 c 0
 290 308 275 323 275 341 c 0
 275 348 277 355 282 362 c 2
 404 521 l 2
 411 529 420 534 431 534 c 0
 443 534 453 528 460 517 c 2
 579 362 l 2
 584 355 586 348 586 341 c 0
 586 323 571 308 553 308 c 0
 542 308 532 313 526 321 c 2
 465 401 l 1
 465 -200 l 2
25 -41 m 0
 25 -23 40 -8 58 -8 c 0
 69 -8 79 -13 85 -21 c 0
 111 -55 132 -82 148 -103 c 1
 148 500 l 2
 148 518 163 534 181 534 c 0
 199 534 215 518 215 500 c 2
 215 -101 l 1
 276 -21 l 2
 282 -13 292 -8 303 -8 c 0
 321 -8 336 -23 336 -41 c 0
 336 -48 334 -55 329 -62 c 2
 210 -217 l 2
 203 -228 193 -234 181 -234 c 0
 170 -234 161 -229 154 -221 c 2
 32 -62 l 2
 27 -55 25 -48 25 -41 c 0
EndSplineSet
Validated: 1
EndChar

StartChar: uni2B8C
Encoding: 149 11148 149
Width: 550
Flags: W
HStem: -100 67<28.2926 355.116> 333 67<158 355.551>
VStem: 458 67<69.857 232.132>
LayerCount: 2
Fore
SplineSet
276 -33 m 2
 377 -33 458 48 458 150 c 0
 458 252 378 333 276 333 c 2
 157 333 l 1
 238 271 l 2
 246 265 251 255 251 244 c 0
 251 226 236 210 218 210 c 0
 211 210 204 212 197 217 c 2
 38 339 l 2
 30 345 25 355 25 366 c 0
 25 377 30 386 38 393 c 2
 197 515 l 2
 204 520 211 522 218 522 c 0
 236 522 251 506 251 488 c 0
 251 477 246 467 238 461 c 2
 158 400 l 1
 276 400 l 2
 415 400 525 289 525 150 c 0
 525 11 414 -100 276 -100 c 2
 58 -100 l 2
 40 -100 25 -84 25 -66 c 0
 25 -48 40 -33 58 -33 c 2
 276 -33 l 2
EndSplineSet
Validated: 1
EndChar

StartChar: uni2B8D
Encoding: 150 11149 150
Width: 672
Flags: W
HStem: -100 67<194.418 354.293>
VStem: 25 67<70.2557 396.515> 458 67<70.2557 268>
LayerCount: 2
Fore
SplineSet
92 150 m 2
 92 48 173 -33 274 -33 c 0
 376 -33 458 48 458 150 c 2
 458 268 l 1
 442 247 421 220 396 187 c 0
 390 179 380 174 369 174 c 0
 351 174 336 189 336 207 c 0
 336 214 338 221 343 228 c 2
 465 387 l 2
 472 395 481 400 492 400 c 0
 503 400 512 395 518 387 c 2
 640 228 l 2
 645 221 647 214 647 207 c 0
 647 189 632 174 614 174 c 0
 603 174 593 179 587 187 c 2
 525 268 l 1
 525 150 l 2
 525 11 413 -100 274 -100 c 0
 136 -100 25 11 25 150 c 2
 25 366 l 2
 25 384 40 400 58 400 c 0
 76 400 92 384 92 366 c 2
 92 150 l 2
EndSplineSet
Validated: 1
EndChar

StartChar: uni2B8E
Encoding: 151 11150 151
Width: 550
Flags: W
HStem: -100 67<194.449 392> 333 67<194.884 521.707>
VStem: 25 67<67.8685 230.143>
LayerCount: 2
Fore
SplineSet
274 333 m 2
 173 333 92 252 92 150 c 0
 92 48 172 -33 274 -33 c 2
 393 -33 l 1
 372 -17 345 4 312 29 c 0
 304 35 299 45 299 56 c 0
 299 74 314 90 332 90 c 0
 339 90 346 88 353 83 c 2
 512 -39 l 2
 520 -46 525 -55 525 -66 c 0
 525 -77 520 -87 512 -93 c 2
 353 -215 l 2
 346 -220 339 -222 332 -222 c 0
 314 -222 299 -206 299 -188 c 0
 299 -177 304 -167 312 -161 c 2
 392 -100 l 1
 274 -100 l 2
 135 -100 25 11 25 150 c 0
 25 289 136 400 274 400 c 2
 492 400 l 2
 510 400 525 384 525 366 c 0
 525 348 510 333 492 333 c 2
 274 333 l 2
EndSplineSet
Validated: 1
EndChar

StartChar: uni2B8F
Encoding: 152 11151 152
Width: 673
Flags: W
HStem: 333 67<318.707 478.582>
VStem: 148 67<33 229.744> 581 67<-96.5146 229.744>
LayerCount: 2
Fore
SplineSet
581 150 m 2
 581 252 500 333 399 333 c 0
 297 333 215 252 215 150 c 2
 215 33 l 1
 276 113 l 2
 282 121 292 126 303 126 c 0
 321 126 336 111 336 93 c 0
 336 86 334 79 329 72 c 2
 210 -83 l 2
 203 -94 193 -100 181 -100 c 0
 170 -100 161 -95 154 -87 c 2
 32 72 l 2
 27 79 25 86 25 93 c 0
 25 111 40 126 58 126 c 0
 69 126 79 121 85 113 c 0
 111 79 132 52 148 31 c 1
 148 150 l 2
 148 289 260 400 399 400 c 0
 537 400 648 289 648 150 c 2
 648 -66 l 2
 648 -84 633 -100 615 -100 c 0
 597 -100 581 -84 581 -66 c 2
 581 150 l 2
EndSplineSet
Validated: 1
EndChar

StartChar: uni2BA0
Encoding: 153 11168 153
Width: 550
Flags: W
HStem: -100 66<157 458>
VStem: 458 67<-34 396.707>
LayerCount: 2
Fore
SplineSet
525 -67 m 2
 525 -85 510 -100 491 -100 c 2
 157 -100 l 1
 238 -162 l 2
 246 -168 251 -178 251 -189 c 0
 251 -207 236 -223 218 -223 c 0
 211 -223 204 -221 197 -216 c 2
 38 -94 l 2
 30 -88 25 -78 25 -67 c 0
 25 -56 30 -47 38 -40 c 2
 197 82 l 2
 204 87 211 89 218 89 c 0
 236 89 251 73 251 55 c 0
 251 44 246 34 238 28 c 2
 157 -34 l 1
 458 -34 l 1
 458 367 l 2
 458 385 474 400 492 400 c 0
 510 400 525 385 525 367 c 2
 525 -67 l 2
EndSplineSet
Validated: 1
EndChar

StartChar: uni2BA1
Encoding: 154 11169 154
Width: 551
Flags: W
HStem: -100 67<92 393>
VStem: 25 67<-33 396.515>
LayerCount: 2
Fore
SplineSet
58 -100 m 2
 40 -100 25 -85 25 -66 c 2
 25 366 l 2
 25 384 40 400 58 400 c 0
 76 400 92 384 92 366 c 2
 92 -33 l 1
 394 -33 l 1
 373 -17 346 4 313 29 c 0
 305 35 300 45 300 56 c 0
 300 74 315 90 333 90 c 0
 340 90 347 88 354 83 c 2
 513 -39 l 2
 521 -46 526 -55 526 -66 c 0
 526 -77 521 -87 513 -93 c 2
 354 -215 l 2
 347 -220 340 -222 333 -222 c 0
 315 -222 300 -206 300 -188 c 0
 300 -177 305 -167 313 -161 c 2
 393 -100 l 1
 58 -100 l 2
EndSplineSet
Validated: 1
EndChar

StartChar: uni2BA2
Encoding: 155 11170 155
Width: 551
Flags: W
HStem: 333 67<158 459>
VStem: 459 67<-96.5146 333>
LayerCount: 2
Fore
SplineSet
492 400 m 2
 511 400 526 385 526 366 c 2
 526 -66 l 2
 526 -84 510 -100 492 -100 c 0
 474 -100 459 -84 459 -66 c 2
 459 333 l 1
 157 333 l 1
 238 271 l 2
 246 265 251 255 251 244 c 0
 251 226 236 210 218 210 c 0
 211 210 204 212 197 217 c 2
 38 339 l 2
 30 345 25 355 25 366 c 0
 25 377 30 386 38 393 c 2
 197 515 l 2
 204 520 211 522 218 522 c 0
 236 522 251 506 251 488 c 0
 251 477 246 467 238 461 c 2
 158 400 l 1
 492 400 l 2
EndSplineSet
Validated: 1
EndChar

StartChar: uni2BA3
Encoding: 156 11171 156
Width: 550
Flags: W
HStem: 334 66<92 393>
VStem: 25 67<-96.7074 334>
LayerCount: 2
Fore
SplineSet
25 367 m 2
 25 385 40 400 59 400 c 2
 393 400 l 1
 372 416 345 437 312 462 c 0
 304 468 299 478 299 489 c 0
 299 507 314 523 332 523 c 0
 339 523 346 521 353 516 c 2
 512 394 l 2
 520 387 525 378 525 367 c 0
 525 356 520 346 512 340 c 2
 353 218 l 2
 346 213 339 211 332 211 c 0
 314 211 299 227 299 245 c 0
 299 256 304 266 312 272 c 2
 394 334 l 1
 92 334 l 1
 92 -67 l 2
 92 -85 76 -100 58 -100 c 0
 40 -100 25 -85 25 -67 c 2
 25 367 l 2
EndSplineSet
Validated: 1
EndChar

StartChar: uni2BA4
Encoding: 157 11172 157
Width: 674
Flags: W
HStem: -100 67<215 645.515>
VStem: 148 67<-33 267>
LayerCount: 2
Fore
SplineSet
181 -100 m 2
 163 -100 148 -85 148 -66 c 2
 148 269 l 1
 132 248 111 221 85 187 c 0
 79 179 69 174 58 174 c 0
 40 174 25 189 25 207 c 0
 25 214 27 221 32 228 c 2
 154 387 l 2
 161 395 170 400 181 400 c 0
 193 400 203 394 210 383 c 2
 329 228 l 2
 334 221 336 214 336 207 c 0
 336 189 321 174 303 174 c 0
 292 174 282 179 276 187 c 2
 215 267 l 1
 215 -33 l 1
 615 -33 l 2
 633 -33 649 -48 649 -66 c 0
 649 -84 633 -100 615 -100 c 2
 181 -100 l 2
EndSplineSet
Validated: 1
EndChar

StartChar: uni2BA5
Encoding: 158 11173 158
Width: 672
Flags: W
HStem: -100 66<27.9501 458>
VStem: 458 67<-34 268>
LayerCount: 2
Fore
SplineSet
525 -67 m 2
 525 -85 510 -100 491 -100 c 2
 58 -100 l 2
 40 -100 25 -85 25 -67 c 0
 25 -49 40 -34 58 -34 c 2
 458 -34 l 1
 458 268 l 1
 442 247 421 220 396 187 c 0
 390 179 380 174 369 174 c 0
 351 174 336 189 336 207 c 0
 336 214 338 221 343 228 c 2
 465 387 l 2
 472 395 481 400 492 400 c 0
 503 400 514 395 520 385 c 2
 640 228 l 2
 645 221 647 214 647 207 c 0
 647 189 632 174 614 174 c 0
 603 174 593 179 587 187 c 2
 525 268 l 1
 525 -67 l 2
EndSplineSet
Validated: 1
EndChar

StartChar: uni2BA6
Encoding: 159 11174 159
Width: 673
Flags: W
HStem: 334 66<215 645.05>
VStem: 148 67<33 334>
LayerCount: 2
Fore
SplineSet
148 367 m 2
 148 385 163 400 182 400 c 2
 615 400 l 2
 633 400 648 385 648 367 c 0
 648 349 633 334 615 334 c 2
 215 334 l 1
 215 33 l 1
 276 113 l 2
 282 121 292 126 303 126 c 0
 321 126 336 111 336 93 c 0
 336 86 334 79 329 72 c 2
 212 -81 l 2
 206 -93 194 -100 181 -100 c 0
 170 -100 161 -95 154 -87 c 2
 32 72 l 2
 27 79 25 86 25 93 c 0
 25 111 40 126 58 126 c 0
 69 126 79 121 85 113 c 0
 111 79 132 52 148 31 c 1
 148 367 l 2
EndSplineSet
Validated: 1
EndChar

StartChar: uni2BA7
Encoding: 160 11175 160
Width: 672
Flags: W
HStem: 333 67<28.2926 459>
VStem: 459 67<33 333>
LayerCount: 2
Fore
SplineSet
492 400 m 2
 511 400 526 385 526 366 c 2
 526 33 l 1
 587 113 l 2
 593 121 603 126 614 126 c 0
 632 126 647 111 647 93 c 0
 647 86 645 79 640 72 c 2
 521 -83 l 2
 514 -94 504 -100 492 -100 c 0
 481 -100 472 -95 465 -87 c 2
 343 72 l 2
 338 79 336 86 336 93 c 0
 336 111 351 126 369 126 c 0
 380 126 390 121 396 113 c 0
 422 79 443 52 459 31 c 1
 459 333 l 1
 58 333 l 2
 40 333 25 348 25 366 c 0
 25 384 40 400 58 400 c 2
 492 400 l 2
EndSplineSet
Validated: 1
EndChar

StartChar: uni2BA8
Encoding: 161 11176 161
Width: 550
Flags: W
HStem: -100 66<157 458>
VStem: 458 67<-34 396.707>
LayerCount: 2
Fore
SplineSet
525 -67 m 2
 525 -85 510 -100 491 -100 c 2
 157 -100 l 1
 238 -162 l 2
 246 -168 251 -178 251 -189 c 0
 251 -207 236 -223 218 -223 c 0
 211 -223 204 -221 197 -216 c 2
 38 -94 l 2
 30 -88 25 -78 25 -67 c 0
 25 -56 30 -47 38 -40 c 2
 197 82 l 2
 204 87 211 89 218 89 c 0
 236 89 251 73 251 55 c 0
 251 44 246 34 238 28 c 2
 157 -34 l 1
 458 -34 l 1
 458 367 l 2
 458 385 474 400 492 400 c 0
 510 400 525 385 525 367 c 2
 525 -67 l 2
EndSplineSet
Validated: 1
EndChar

StartChar: uni2BA9
Encoding: 162 11177 162
Width: 551
Flags: W
HStem: -100 67<92 393>
VStem: 25 67<-33 396.515>
LayerCount: 2
Fore
SplineSet
58 -100 m 2
 40 -100 25 -85 25 -66 c 2
 25 366 l 2
 25 384 40 400 58 400 c 0
 76 400 92 384 92 366 c 2
 92 -33 l 1
 394 -33 l 1
 373 -17 346 4 313 29 c 0
 305 35 300 45 300 56 c 0
 300 74 315 90 333 90 c 0
 340 90 347 88 354 83 c 2
 513 -39 l 2
 521 -46 526 -55 526 -66 c 0
 526 -77 521 -87 513 -93 c 2
 354 -215 l 2
 347 -220 340 -222 333 -222 c 0
 315 -222 300 -206 300 -188 c 0
 300 -177 305 -167 313 -161 c 2
 393 -100 l 1
 58 -100 l 2
EndSplineSet
Validated: 1
EndChar

StartChar: uni2BAA
Encoding: 163 11178 163
Width: 551
Flags: W
HStem: 333 67<158 459>
VStem: 459 67<-96.5146 333>
LayerCount: 2
Fore
SplineSet
492 400 m 2
 511 400 526 385 526 366 c 2
 526 -66 l 2
 526 -84 510 -100 492 -100 c 0
 474 -100 459 -84 459 -66 c 2
 459 333 l 1
 157 333 l 1
 238 271 l 2
 246 265 251 255 251 244 c 0
 251 226 236 210 218 210 c 0
 211 210 204 212 197 217 c 2
 38 339 l 2
 30 345 25 355 25 366 c 0
 25 377 30 386 38 393 c 2
 197 515 l 2
 204 520 211 522 218 522 c 0
 236 522 251 506 251 488 c 0
 251 477 246 467 238 461 c 2
 158 400 l 1
 492 400 l 2
EndSplineSet
Validated: 1
EndChar

StartChar: uni2BAB
Encoding: 164 11179 164
Width: 550
Flags: W
HStem: 334 66<92 393>
VStem: 25 67<-96.7074 334>
LayerCount: 2
Fore
SplineSet
25 367 m 2
 25 385 40 400 59 400 c 2
 393 400 l 1
 372 416 345 437 312 462 c 0
 304 468 299 478 299 489 c 0
 299 507 314 523 332 523 c 0
 339 523 346 521 353 516 c 2
 512 394 l 2
 520 387 525 378 525 367 c 0
 525 356 520 346 512 340 c 2
 353 218 l 2
 346 213 339 211 332 211 c 0
 314 211 299 227 299 245 c 0
 299 256 304 266 312 272 c 2
 394 334 l 1
 92 334 l 1
 92 -67 l 2
 92 -85 76 -100 58 -100 c 0
 40 -100 25 -85 25 -67 c 2
 25 367 l 2
EndSplineSet
Validated: 1
EndChar

StartChar: uni2BAC
Encoding: 165 11180 165
Width: 674
Flags: W
HStem: -100 67<215 645.515>
VStem: 148 67<-33 267>
LayerCount: 2
Fore
SplineSet
181 -100 m 2
 163 -100 148 -85 148 -66 c 2
 148 269 l 1
 132 248 111 221 85 187 c 0
 79 179 69 174 58 174 c 0
 40 174 25 189 25 207 c 0
 25 214 27 221 32 228 c 2
 154 387 l 2
 161 395 170 400 181 400 c 0
 193 400 203 394 210 383 c 2
 329 228 l 2
 334 221 336 214 336 207 c 0
 336 189 321 174 303 174 c 0
 292 174 282 179 276 187 c 2
 215 267 l 1
 215 -33 l 1
 615 -33 l 2
 633 -33 649 -48 649 -66 c 0
 649 -84 633 -100 615 -100 c 2
 181 -100 l 2
EndSplineSet
Validated: 1
EndChar

StartChar: uni2BAD
Encoding: 166 11181 166
Width: 672
Flags: W
HStem: -100 66<27.9501 458>
VStem: 458 67<-34 268>
LayerCount: 2
Fore
SplineSet
525 -67 m 2
 525 -85 510 -100 491 -100 c 2
 58 -100 l 2
 40 -100 25 -85 25 -67 c 0
 25 -49 40 -34 58 -34 c 2
 458 -34 l 1
 458 268 l 1
 442 247 421 220 396 187 c 0
 390 179 380 174 369 174 c 0
 351 174 336 189 336 207 c 0
 336 214 338 221 343 228 c 2
 465 387 l 2
 472 395 481 400 492 400 c 0
 503 400 514 395 520 385 c 2
 640 228 l 2
 645 221 647 214 647 207 c 0
 647 189 632 174 614 174 c 0
 603 174 593 179 587 187 c 2
 525 268 l 1
 525 -67 l 2
EndSplineSet
Validated: 1
EndChar

StartChar: uni2BAE
Encoding: 167 11182 167
Width: 673
Flags: W
HStem: 334 66<215 645.05>
VStem: 148 67<33 334>
LayerCount: 2
Fore
SplineSet
148 367 m 2
 148 385 163 400 182 400 c 2
 615 400 l 2
 633 400 648 385 648 367 c 0
 648 349 633 334 615 334 c 2
 215 334 l 1
 215 33 l 1
 276 113 l 2
 282 121 292 126 303 126 c 0
 321 126 336 111 336 93 c 0
 336 86 334 79 329 72 c 2
 212 -81 l 2
 206 -93 194 -100 181 -100 c 0
 170 -100 161 -95 154 -87 c 2
 32 72 l 2
 27 79 25 86 25 93 c 0
 25 111 40 126 58 126 c 0
 69 126 79 121 85 113 c 0
 111 79 132 52 148 31 c 1
 148 367 l 2
EndSplineSet
Validated: 1
EndChar

StartChar: uni2BAF
Encoding: 168 11183 168
Width: 672
Flags: W
HStem: 333 67<28.2926 459>
VStem: 459 67<33 333>
LayerCount: 2
Fore
SplineSet
492 400 m 2
 511 400 526 385 526 366 c 2
 526 33 l 1
 587 113 l 2
 593 121 603 126 614 126 c 0
 632 126 647 111 647 93 c 0
 647 86 645 79 640 72 c 2
 521 -83 l 2
 514 -94 504 -100 492 -100 c 0
 481 -100 472 -95 465 -87 c 2
 343 72 l 2
 338 79 336 86 336 93 c 0
 336 111 351 126 369 126 c 0
 380 126 390 121 396 113 c 0
 422 79 443 52 459 31 c 1
 459 333 l 1
 58 333 l 2
 40 333 25 348 25 366 c 0
 25 384 40 400 58 400 c 2
 492 400 l 2
EndSplineSet
Validated: 1
EndChar

StartChar: uni2BB0
Encoding: 169 11184 169
Width: 550
Flags: W
HStem: -100 66<157 458>
VStem: 458 67<-34 396.707>
LayerCount: 2
Fore
SplineSet
525 -67 m 2
 525 -85 510 -100 491 -100 c 2
 157 -100 l 1
 238 -162 l 2
 246 -168 251 -178 251 -189 c 0
 251 -207 236 -223 218 -223 c 0
 211 -223 204 -221 197 -216 c 2
 38 -94 l 2
 30 -88 25 -78 25 -67 c 0
 25 -56 30 -47 38 -40 c 2
 197 82 l 2
 204 87 211 89 218 89 c 0
 236 89 251 73 251 55 c 0
 251 44 246 34 238 28 c 2
 157 -34 l 1
 458 -34 l 1
 458 367 l 2
 458 385 474 400 492 400 c 0
 510 400 525 385 525 367 c 2
 525 -67 l 2
EndSplineSet
Validated: 1
EndChar

StartChar: uni2BB1
Encoding: 170 11185 170
Width: 551
Flags: W
HStem: -100 67<92 393>
VStem: 25 67<-33 396.515>
LayerCount: 2
Fore
SplineSet
58 -100 m 2
 40 -100 25 -85 25 -66 c 2
 25 366 l 2
 25 384 40 400 58 400 c 0
 76 400 92 384 92 366 c 2
 92 -33 l 1
 394 -33 l 1
 373 -17 346 4 313 29 c 0
 305 35 300 45 300 56 c 0
 300 74 315 90 333 90 c 0
 340 90 347 88 354 83 c 2
 513 -39 l 2
 521 -46 526 -55 526 -66 c 0
 526 -77 521 -87 513 -93 c 2
 354 -215 l 2
 347 -220 340 -222 333 -222 c 0
 315 -222 300 -206 300 -188 c 0
 300 -177 305 -167 313 -161 c 2
 393 -100 l 1
 58 -100 l 2
EndSplineSet
Validated: 1
EndChar

StartChar: uni2BB2
Encoding: 171 11186 171
Width: 551
Flags: W
HStem: 333 67<158 459>
VStem: 459 67<-96.5146 333>
LayerCount: 2
Fore
SplineSet
492 400 m 2
 511 400 526 385 526 366 c 2
 526 -66 l 2
 526 -84 510 -100 492 -100 c 0
 474 -100 459 -84 459 -66 c 2
 459 333 l 1
 157 333 l 1
 238 271 l 2
 246 265 251 255 251 244 c 0
 251 226 236 210 218 210 c 0
 211 210 204 212 197 217 c 2
 38 339 l 2
 30 345 25 355 25 366 c 0
 25 377 30 386 38 393 c 2
 197 515 l 2
 204 520 211 522 218 522 c 0
 236 522 251 506 251 488 c 0
 251 477 246 467 238 461 c 2
 158 400 l 1
 492 400 l 2
EndSplineSet
Validated: 1
EndChar

StartChar: uni2BB3
Encoding: 172 11187 172
Width: 550
Flags: W
HStem: 334 66<92 393>
VStem: 25 67<-96.7074 334>
LayerCount: 2
Fore
SplineSet
25 367 m 2
 25 385 40 400 59 400 c 2
 393 400 l 1
 372 416 345 437 312 462 c 0
 304 468 299 478 299 489 c 0
 299 507 314 523 332 523 c 0
 339 523 346 521 353 516 c 2
 512 394 l 2
 520 387 525 378 525 367 c 0
 525 356 520 346 512 340 c 2
 353 218 l 2
 346 213 339 211 332 211 c 0
 314 211 299 227 299 245 c 0
 299 256 304 266 312 272 c 2
 394 334 l 1
 92 334 l 1
 92 -67 l 2
 92 -85 76 -100 58 -100 c 0
 40 -100 25 -85 25 -67 c 2
 25 367 l 2
EndSplineSet
Validated: 1
EndChar

StartChar: uni2BB4
Encoding: 173 11188 173
Width: 674
Flags: W
HStem: -100 67<215 645.515>
VStem: 148 67<-33 267>
LayerCount: 2
Fore
SplineSet
181 -100 m 2
 163 -100 148 -85 148 -66 c 2
 148 269 l 1
 132 248 111 221 85 187 c 0
 79 179 69 174 58 174 c 0
 40 174 25 189 25 207 c 0
 25 214 27 221 32 228 c 2
 154 387 l 2
 161 395 170 400 181 400 c 0
 193 400 203 394 210 383 c 2
 329 228 l 2
 334 221 336 214 336 207 c 0
 336 189 321 174 303 174 c 0
 292 174 282 179 276 187 c 2
 215 267 l 1
 215 -33 l 1
 615 -33 l 2
 633 -33 649 -48 649 -66 c 0
 649 -84 633 -100 615 -100 c 2
 181 -100 l 2
EndSplineSet
Validated: 1
EndChar

StartChar: uni2BB5
Encoding: 174 11189 174
Width: 672
Flags: W
HStem: -100 66<27.9501 458>
VStem: 458 67<-34 268>
LayerCount: 2
Fore
SplineSet
525 -67 m 2
 525 -85 510 -100 491 -100 c 2
 58 -100 l 2
 40 -100 25 -85 25 -67 c 0
 25 -49 40 -34 58 -34 c 2
 458 -34 l 1
 458 268 l 1
 442 247 421 220 396 187 c 0
 390 179 380 174 369 174 c 0
 351 174 336 189 336 207 c 0
 336 214 338 221 343 228 c 2
 465 387 l 2
 472 395 481 400 492 400 c 0
 503 400 514 395 520 385 c 2
 640 228 l 2
 645 221 647 214 647 207 c 0
 647 189 632 174 614 174 c 0
 603 174 593 179 587 187 c 2
 525 268 l 1
 525 -67 l 2
EndSplineSet
Validated: 1
EndChar

StartChar: uni2BB6
Encoding: 175 11190 175
Width: 673
Flags: W
HStem: 334 66<215 645.05>
VStem: 148 67<33 334>
LayerCount: 2
Fore
SplineSet
148 367 m 2
 148 385 163 400 182 400 c 2
 615 400 l 2
 633 400 648 385 648 367 c 0
 648 349 633 334 615 334 c 2
 215 334 l 1
 215 33 l 1
 276 113 l 2
 282 121 292 126 303 126 c 0
 321 126 336 111 336 93 c 0
 336 86 334 79 329 72 c 2
 212 -81 l 2
 206 -93 194 -100 181 -100 c 0
 170 -100 161 -95 154 -87 c 2
 32 72 l 2
 27 79 25 86 25 93 c 0
 25 111 40 126 58 126 c 0
 69 126 79 121 85 113 c 0
 111 79 132 52 148 31 c 1
 148 367 l 2
EndSplineSet
Validated: 1
EndChar

StartChar: uni2BB7
Encoding: 176 11191 176
Width: 672
Flags: W
HStem: 333 67<28.2926 459>
VStem: 459 67<33 333>
LayerCount: 2
Fore
SplineSet
492 400 m 2
 511 400 526 385 526 366 c 2
 526 33 l 1
 587 113 l 2
 593 121 603 126 614 126 c 0
 632 126 647 111 647 93 c 0
 647 86 645 79 640 72 c 2
 521 -83 l 2
 514 -94 504 -100 492 -100 c 0
 481 -100 472 -95 465 -87 c 2
 343 72 l 2
 338 79 336 86 336 93 c 0
 336 111 351 126 369 126 c 0
 380 126 390 121 396 113 c 0
 422 79 443 52 459 31 c 1
 459 333 l 1
 58 333 l 2
 40 333 25 348 25 366 c 0
 25 384 40 400 58 400 c 2
 492 400 l 2
EndSplineSet
Validated: 1
EndChar
